<svg width="93" height="56" viewBox="0 0 93 56" fill="none" xmlns="http://www.w3.org/2000/svg">
<path d="M45.7006 4.48254L45.7099 4.48021L45.7191 4.47717C46.4478 4.23425 46.9876 3.94568 47.2752 3.58617C47.4246 3.39946 47.51 3.18831 47.51 2.9575C47.51 2.73469 47.4304 2.51904 47.2967 2.31447C46.75 1.23726 45.5488 0.75 43.84 0.75C40.6523 0.75 36.6459 2.21744 31.8354 5.10322C27.0154 7.75477 22.2005 11.367 17.3903 15.9364C12.5753 20.2702 8.60041 24.9674 5.46743 30.0284C2.3287 35.0987 0.75 40.0637 0.75 44.92C0.75 48.5527 1.59697 51.2705 3.34322 53.0168C5.06496 54.7385 7.04675 55.61 9.28 55.61C11.7577 55.61 14.3321 54.4949 16.9983 52.3135L17 52.312C19.9186 49.8799 21.41 47.1753 21.41 44.2C21.41 41.553 21.1703 39.4834 20.6789 38.0062C20.2081 36.356 19.97 34.3423 19.97 31.96C19.97 27.9489 21.5023 24.0429 24.594 20.2376L24.5941 20.2377L24.5986 20.2319C27.7037 16.1714 31.2854 12.7092 35.3442 9.84424C39.4138 6.97159 42.8642 5.19164 45.7006 4.48254ZM90.7006 4.48254L90.71 4.48021L90.7191 4.47717C91.4478 4.23425 91.9876 3.94568 92.2752 3.58617C92.4246 3.39946 92.51 3.18831 92.51 2.9575C92.51 2.73467 92.4305 2.51904 92.2967 2.31445C91.75 1.23725 90.5488 0.75 88.84 0.75C85.6523 0.75 81.6459 2.21744 76.8354 5.10319C72.0154 7.75475 67.2005 11.367 62.3902 15.9365C57.5753 20.2703 53.6004 24.9674 50.4674 30.0284C47.3287 35.0987 45.75 40.0637 45.75 44.92C45.75 48.5527 46.597 51.2705 48.3432 53.0168C50.065 54.7385 52.0468 55.61 54.28 55.61C56.7577 55.61 59.3321 54.4949 61.9983 52.3135L62 52.312C64.9186 49.8799 66.41 47.1753 66.41 44.2C66.41 41.5531 66.1703 39.4836 65.6789 38.0063C65.2082 36.3561 64.97 34.3424 64.97 31.96C64.97 27.9489 66.5023 24.0429 69.594 20.2376L69.5941 20.2377L69.5986 20.2319C72.7037 16.1714 76.2854 12.7092 80.3442 9.84424C84.4138 6.97159 87.8643 5.19164 90.7006 4.48254Z" fill="#871C1C" stroke="#871C1C" stroke-width="0.5"/>
</svg>
