<svg width="20" height="18" viewBox="0 0 20 18" fill="none" xmlns="http://www.w3.org/2000/svg">
<path d="M6.03181 0C7.51202 4.65535e-05 8.93821 0.556104 10.0278 1.558C11.1175 0.556273 12.5436 0.000241959 14.0238 0C14.8064 0.000599606 15.5811 0.15587 16.3034 0.456883C17.0257 0.757897 17.6814 1.19872 18.2328 1.754C20.5888 4.121 20.5888 7.816 18.2348 10.17L10.8198 17.585C10.729 17.7103 10.61 17.8126 10.4724 17.8837C10.3349 17.9547 10.1826 17.9925 10.0278 17.994C9.65081 17.994 9.32281 17.801 9.15281 17.502L1.82081 10.17C-0.533187 7.817 -0.534187 4.121 1.81881 1.758C2.37048 1.20169 3.02671 0.759977 3.74975 0.458268C4.47279 0.15656 5.24835 0.000815702 6.03181 0Z" fill="#871C1C"/>
</svg>
