<svg width="251" height="57" viewBox="0 0 251 57" fill="none" xmlns="http://www.w3.org/2000/svg">
<mask id="path-1-outside-1_1067_607" maskUnits="userSpaceOnUse" x="0" y="0" width="251" height="57" fill="black">
<rect fill="white" width="251" height="57"/>
<path d="M30.312 2.96923C30.6107 3.05456 30.7173 3.18257 30.632 3.35323C30.5893 3.48123 30.2907 3.4599 29.736 3.28923C27.9013 2.77723 25.8747 2.67056 23.656 2.96923C21.4373 3.22523 19.304 3.82257 17.256 4.76123C15.2507 5.65723 13.608 6.80923 12.328 8.21723C11.048 9.58257 10.408 11.1186 10.408 12.8252C10.408 14.0626 10.792 15.1292 11.56 16.0252C12.328 16.9212 13.3307 17.6679 14.568 18.2652C15.848 18.8199 17.256 19.2466 18.792 19.5452C20.3707 19.8012 21.9493 19.9292 23.528 19.9292C25.7467 19.9292 27.9013 19.5879 29.992 18.9052C32.0827 18.1799 34.0027 17.2412 35.752 16.0892C37.5013 14.9372 39.0373 13.6999 40.36 12.3772C41.6827 11.0119 42.7067 9.68923 43.432 8.40923C44.1573 7.08656 44.52 5.93456 44.52 4.95323C44.52 3.5879 43.7947 2.90523 42.344 2.90523C40.8933 2.90523 39.4427 3.5239 37.992 4.76123C36.584 5.9559 35.1333 7.57723 33.64 9.62523C32.1467 11.6306 30.6107 13.8492 29.032 16.2812C27.4533 18.6706 25.8107 21.0812 24.104 23.5132C22.44 25.9026 20.6907 28.1212 18.856 30.1692C17.0213 32.1746 15.08 33.7959 13.032 35.0332C11.0267 36.2279 8.91467 36.8252 6.696 36.8252C4.648 36.8252 3.19733 36.4626 2.344 35.7372C1.448 35.0119 1 34.1799 1 33.2412C1 32.7719 1.23467 32.3452 1.704 31.9612C2.13067 31.5772 2.62133 31.3852 3.176 31.3852C4.072 31.3852 4.52 31.7906 4.52 32.6012C4.52 33.0279 4.328 33.3266 3.944 33.4972C3.56 33.6679 3.26133 33.7532 3.048 33.7532C2.792 33.7532 2.55733 33.7106 2.344 33.6252C2.088 33.5399 1.96 33.4972 1.96 33.4972C1.96 33.9666 2.28 34.5426 2.92 35.2252C3.51733 35.9079 4.66933 36.2492 6.376 36.2492C8.168 36.2492 9.78933 35.7586 11.24 34.7772C12.7333 33.7959 14.12 32.4732 15.4 30.8092C16.68 29.1452 17.9387 27.2892 19.176 25.2412C20.4133 23.1932 21.7147 21.0812 23.08 18.9052C24.4453 16.8146 25.896 14.7879 27.432 12.8252C28.968 10.8199 30.5467 9.0279 32.168 7.44923C33.832 5.87056 35.5173 4.6119 37.224 3.67323C38.9307 2.73457 40.616 2.26523 42.28 2.26523C44.584 2.26523 45.736 3.2039 45.736 5.08123C45.736 6.6599 45.0747 8.34523 43.752 10.1372C42.472 11.9292 40.744 13.6146 38.568 15.1932C36.4347 16.7719 34.0453 18.0732 31.4 19.0972C28.7547 20.0786 26.088 20.5692 23.4 20.5692C21.6507 20.5692 19.9013 20.4199 18.152 20.1212C16.4453 19.8226 14.888 19.3532 13.48 18.7132C12.072 18.0732 10.9413 17.2412 10.088 16.2172C9.23467 15.1932 8.808 13.9772 8.808 12.5692C8.808 10.9479 9.34133 9.49723 10.408 8.21723C11.4747 6.93723 12.84 5.87056 14.504 5.01723C16.2107 4.12123 18.024 3.43857 19.944 2.96923C21.9067 2.4999 23.8053 2.26523 25.64 2.26523C27.4747 2.26523 29.032 2.4999 30.312 2.96923Z"/>
<path d="M46.488 8.60123C46.872 8.7719 47.4267 8.85723 48.152 8.85723C48.92 8.81456 49.5173 8.75056 49.944 8.66523C48.5787 10.5426 47.064 12.6119 45.4 14.8732C43.736 17.1346 42.0507 19.3959 40.344 21.6572C38.68 23.8759 37.1227 25.9666 35.672 27.9292C34.264 29.8492 33.1333 31.4706 32.28 32.7932C31.4267 34.1159 31 34.9479 31 35.2892C31 35.5452 31.1493 35.7372 31.448 35.8652C31.704 35.9932 32.0453 36.0572 32.472 36.0572C33.4107 36.0572 34.4347 35.7372 35.544 35.0972C36.696 34.4146 37.8267 33.5826 38.936 32.6012C40.088 31.5772 41.1333 30.5532 42.072 29.5292C43.0533 28.4626 43.8213 27.5452 44.376 26.7772L44.888 27.1612C44.2907 27.9292 43.5013 28.8466 42.52 29.9132C41.5387 30.9799 40.4507 32.0466 39.256 33.1132C38.0613 34.1799 36.824 35.0759 35.544 35.8012C34.3067 36.4839 33.112 36.8252 31.96 36.8252C31.1493 36.8252 30.5093 36.6546 30.04 36.3132C29.528 36.0146 29.272 35.4812 29.272 34.7132C29.272 34.0306 29.6773 32.9852 30.488 31.5772C31.2987 30.1266 32.344 28.4626 33.624 26.5852C34.9467 24.7079 36.376 22.7239 37.912 20.6332C39.448 18.4999 40.9627 16.4092 42.456 14.3612C43.992 12.2706 45.336 10.3506 46.488 8.60123ZM39.448 15.7692C39.0213 15.7692 38.808 15.6412 38.808 15.3852C38.808 15.1719 39.0213 15.0652 39.448 15.0652H51.608C51.736 15.0652 51.864 15.0866 51.992 15.1292C52.1627 15.1719 52.248 15.2572 52.248 15.3852C52.248 15.5559 52.1627 15.6626 51.992 15.7052C51.864 15.7479 51.736 15.7692 51.608 15.7692H39.448Z"/>
<path d="M55.321 19.9292C57.4543 19.9292 58.521 20.9532 58.521 23.0012C58.521 24.5799 58.1583 26.2012 57.433 27.8652C56.7077 29.4866 55.7263 30.9799 54.489 32.3452C53.2517 33.6679 51.9077 34.7559 50.457 35.6092C49.0063 36.4199 47.5343 36.8252 46.041 36.8252C44.889 36.8252 43.929 36.5479 43.161 35.9932C42.3503 35.3959 41.945 34.4359 41.945 33.1132C41.945 31.8759 42.3077 30.5106 43.033 29.0172C43.7583 27.4812 44.7397 26.0306 45.977 24.6652C47.257 23.2999 48.6863 22.1692 50.265 21.2732C51.8863 20.3772 53.5717 19.9292 55.321 19.9292ZM56.025 20.8252C55.2997 20.8252 54.4463 21.1452 53.465 21.7852C52.4837 22.4252 51.481 23.2572 50.457 24.2812C49.433 25.3052 48.473 26.4146 47.577 27.6092C46.7237 28.7612 46.0197 29.8919 45.465 31.0012C44.953 32.1106 44.697 33.0492 44.697 33.8172C44.697 34.6706 44.9317 35.2679 45.401 35.6092C45.8703 35.9079 46.4037 36.0572 47.001 36.0572C47.9823 36.0572 49.0917 35.6519 50.329 34.8412C51.5663 33.9879 52.761 32.9212 53.913 31.6412C55.065 30.3612 56.0037 29.0172 56.729 27.6092C57.497 26.1586 57.881 24.8359 57.881 23.6412C57.881 22.5319 57.689 21.7852 57.305 21.4012C56.921 21.0172 56.4943 20.8252 56.025 20.8252ZM57.177 27.4172C57.3903 27.4172 57.4757 27.5026 57.433 27.6732C57.433 27.8012 57.3263 27.8652 57.113 27.8652C56.9423 27.8652 56.6863 28.0999 56.345 28.5692C56.0463 28.9959 55.769 29.4439 55.513 29.9132C55.257 30.3826 55.129 30.6386 55.129 30.6812C55.129 31.6626 55.4917 32.1532 56.217 32.1532C56.8997 32.1532 57.6677 31.8332 58.521 31.1932C59.417 30.5532 60.2703 29.8279 61.081 29.0172C61.9343 28.1639 62.617 27.4172 63.129 26.7772L63.641 27.2252C63.0863 27.8652 62.3823 28.6332 61.529 29.5292C60.6757 30.3826 59.7797 31.1506 58.841 31.8332C57.9023 32.4732 57.0277 32.7932 56.217 32.7932C55.5343 32.7932 55.065 32.6439 54.809 32.3452C54.553 32.0466 54.425 31.5132 54.425 30.7452C54.425 29.7212 54.7663 28.9106 55.449 28.3132C56.1743 27.7159 56.7503 27.4172 57.177 27.4172Z"/>
<path d="M61.7815 36.8252C61.1842 36.8252 60.5228 36.6546 59.7975 36.3132C59.0295 36.0146 58.6455 35.5026 58.6455 34.7772C58.6455 33.8812 59.0508 32.7506 59.8615 31.3852C60.6722 30.0199 61.6748 28.6119 62.8695 27.1612C64.0215 25.7106 65.1522 24.3452 66.2615 23.0652C67.3708 21.7852 68.2028 20.7826 68.7575 20.0572C69.2268 20.0999 69.7815 20.1212 70.4215 20.1212C71.1042 20.1212 71.7015 20.0999 72.2135 20.0572C71.6162 20.7826 70.8268 21.6999 69.8455 22.8092C68.9068 23.9186 67.9042 25.1132 66.8375 26.3932C65.8135 27.6306 64.8108 28.8466 63.8295 30.0412C62.8908 31.2359 62.1228 32.3026 61.5255 33.2412C60.9282 34.1799 60.6295 34.8626 60.6295 35.2892C60.6295 35.5879 60.7575 35.8012 61.0135 35.9292C61.2695 36.0572 61.6962 36.1212 62.2935 36.1212C63.3175 36.1212 64.4482 35.7372 65.6855 34.9692C66.9655 34.1586 68.2028 33.1986 69.3975 32.0892C70.5922 30.9799 71.6588 29.9346 72.5975 28.9532C73.5362 27.9292 74.1975 27.1826 74.5815 26.7132L75.0935 27.1612C74.7095 27.5879 74.0482 28.3346 73.1095 29.4012C72.2135 30.4252 71.1255 31.5132 69.8455 32.6652C68.6082 33.8172 67.2855 34.7986 65.8775 35.6092C64.5122 36.4199 63.1468 36.8252 61.7815 36.8252ZM74.5815 15.1932C74.0695 15.1932 73.6855 15.0439 73.4295 14.7452C73.1735 14.4039 73.0455 14.0199 73.0455 13.5932C73.0455 13.1239 73.3015 12.6332 73.8135 12.1212C74.3255 11.6092 74.8588 11.3532 75.4135 11.3532C76.0108 11.3532 76.4375 11.5239 76.6935 11.8652C76.9495 12.1639 77.0775 12.4626 77.0775 12.7612C77.0775 13.4012 76.8215 13.9772 76.3095 14.4892C75.7975 14.9586 75.2215 15.1932 74.5815 15.1932Z"/>
<path d="M86.851 24.7932C86.2537 24.7932 85.8057 24.6652 85.507 24.4092C85.251 24.1106 85.123 23.7692 85.123 23.3852C85.123 23.0012 85.2723 22.6386 85.571 22.2972C85.9123 21.9132 86.3603 21.7212 86.915 21.7212C87.2563 21.7212 87.555 21.7639 87.811 21.8492C88.067 21.9346 88.195 21.9772 88.195 21.9772C88.2377 21.5506 88.131 21.1879 87.875 20.8892C87.619 20.5479 87.1283 20.3772 86.403 20.3772C85.7203 20.3772 84.8883 20.6759 83.907 21.2732C82.9257 21.8706 81.9017 22.6599 80.835 23.6412C79.811 24.6226 78.8297 25.6892 77.891 26.8412C76.995 27.9932 76.2697 29.1666 75.715 30.3612C75.1603 31.5132 74.883 32.5586 74.883 33.4972C74.883 34.5639 75.2243 35.2679 75.907 35.6092C76.5897 35.9506 77.3363 36.1212 78.147 36.1212C79.683 36.1212 81.1977 35.7586 82.691 35.0332C84.1843 34.2652 85.5497 33.3479 86.787 32.2812C88.067 31.1719 89.155 30.1052 90.051 29.0812C90.947 28.0572 91.587 27.2679 91.971 26.7132L92.547 27.0972C92.2057 27.6092 91.5657 28.3986 90.627 29.4652C89.6883 30.5319 88.5363 31.6412 87.171 32.7932C85.8483 33.9026 84.3763 34.8626 82.755 35.6732C81.1337 36.4412 79.427 36.8252 77.635 36.8252C76.1843 36.8252 74.9683 36.5052 73.987 35.8652C72.963 35.1826 72.451 34.1372 72.451 32.7292C72.451 31.5346 72.7923 30.2119 73.475 28.7612C74.1577 27.2679 75.0963 25.8599 76.291 24.5372C77.5283 23.1719 78.979 22.0626 80.643 21.2092C82.3497 20.3132 84.227 19.8652 86.275 19.8652C87.0857 19.8652 87.7897 20.0359 88.387 20.3772C88.9843 20.7186 89.283 21.3159 89.283 22.1692C89.283 22.9372 89.0057 23.5772 88.451 24.0892C87.939 24.5586 87.4057 24.7932 86.851 24.7932Z"/>
<path d="M106.964 37.5292C106.281 37.7426 105.961 37.6999 106.004 37.4012C106.004 37.1452 106.153 36.9959 106.452 36.9532C107.177 36.8252 107.881 36.5479 108.564 36.1212C109.247 35.6946 109.844 35.2039 110.356 34.6492C111.039 33.9239 111.977 32.6866 113.172 30.9372C114.367 29.1879 115.796 27.1399 117.46 24.7932C119.167 22.4039 121.065 19.9719 123.156 17.4972C125.161 15.1506 127.487 12.6332 130.132 9.94523C132.82 7.25723 135.657 4.4839 138.644 1.62523C138.985 1.32656 139.305 1.19856 139.604 1.24123C139.903 1.2839 140.095 1.39056 140.18 1.56123C140.265 1.68923 140.116 1.7959 139.732 1.88123C139.433 1.9239 139.135 2.09456 138.836 2.39323C138.58 2.64923 138.388 2.84123 138.26 2.96923C137.108 4.07856 135.785 5.6359 134.292 7.64123C132.799 9.6039 131.135 11.8226 129.3 14.2972C127.508 16.7719 125.567 19.3532 123.476 22.0412C121.385 24.6866 119.167 27.2679 116.82 29.7852C114.473 32.2599 111.999 34.4999 109.396 36.5052C109.097 36.7186 108.841 36.7399 108.628 36.5692C108.372 36.3986 108.564 36.2066 109.204 35.9932C110.655 35.5239 112.404 34.5212 114.452 32.9852C116.5 31.4066 118.74 29.5079 121.172 27.2892C123.604 25.0706 126.121 22.7026 128.724 20.1852C131.327 17.6679 133.929 15.1932 136.532 12.7612C139.177 10.2866 141.695 8.04657 144.084 6.04123C146.473 3.99323 148.671 2.39323 150.676 1.24123C151.188 0.942564 151.465 0.921231 151.508 1.17723C151.593 1.43323 151.508 1.62523 151.252 1.75323C151.039 1.83857 150.505 2.1799 149.652 2.77723C148.799 3.3319 148.137 3.8439 147.668 4.31323C147.327 4.65456 146.729 5.48656 145.876 6.80923C145.065 8.08923 144.084 9.68923 142.932 11.6092C141.78 13.5292 140.5 15.6199 139.092 17.8812C137.727 20.0999 136.297 22.3186 134.804 24.5372C133.353 26.7559 131.903 28.8039 130.452 30.6812C129.001 32.5586 127.636 34.0946 126.356 35.2892C126.143 35.4599 126.015 35.4812 125.972 35.3532C125.929 35.2252 125.951 35.0332 126.036 34.7772C126.121 34.5212 126.249 34.3292 126.42 34.2012C128.553 32.3666 130.751 30.2972 133.012 27.9932C135.316 25.6892 137.641 23.3426 139.988 20.9532C142.377 18.5212 144.745 16.1746 147.092 13.9132C149.481 11.6519 151.828 9.62523 154.132 7.83323C156.436 6.04123 158.676 4.6119 160.852 3.54523C163.028 2.47856 165.097 1.94523 167.06 1.94523C168.255 1.94523 169.385 2.20123 170.452 2.71323C171.561 3.22523 172.116 4.0999 172.116 5.33723C172.116 6.4039 171.775 7.2999 171.092 8.02523C170.409 8.75056 169.577 9.30523 168.596 9.68923C167.657 10.0306 166.719 10.2012 165.78 10.2012C164.457 10.2012 163.455 9.94523 162.772 9.43323C162.089 8.87857 161.663 8.3879 161.492 7.96123C161.321 7.57723 161.471 7.2999 161.94 7.12923C162.409 6.95856 162.644 7.08656 162.644 7.51323C162.644 8.1959 163.007 8.72923 163.732 9.11323C164.457 9.45457 165.225 9.62523 166.036 9.62523C166.761 9.62523 167.487 9.45457 168.212 9.11323C168.937 8.7719 169.535 8.28123 170.004 7.64123C170.516 6.95856 170.772 6.19056 170.772 5.33723C170.772 4.56923 170.388 3.95056 169.62 3.48123C168.895 2.96923 168.041 2.71323 167.06 2.71323C165.14 2.71323 163.092 3.24656 160.916 4.31323C158.74 5.3799 156.521 6.80923 154.26 8.60123C151.999 10.3506 149.716 12.3346 147.412 14.5532C145.151 16.7292 142.932 18.9692 140.756 21.2732C138.58 23.5346 136.489 25.7106 134.484 27.8012C132.521 29.8492 130.687 31.6412 128.98 33.1772C127.871 34.2012 126.868 35.0546 125.972 35.7372C125.119 36.4199 124.009 37.0172 122.644 37.5292C121.961 37.7852 121.599 37.7426 121.556 37.4012C121.556 37.1026 121.812 36.8892 122.324 36.7612C123.177 36.5479 123.988 36.0786 124.756 35.3532C125.524 34.5852 126.185 33.6252 126.74 32.4732C127.593 30.7239 128.724 28.7186 130.132 26.4572C131.583 24.1959 133.14 21.8706 134.804 19.4812C136.468 17.0919 138.132 14.8306 139.796 12.6972C141.503 10.5212 143.039 8.62256 144.404 7.00123C145.769 5.3799 146.857 4.2279 147.668 3.54523C147.839 3.37456 147.86 3.5239 147.732 3.99323C147.604 4.4199 147.135 4.88923 146.324 5.40123C144.063 6.89456 141.652 8.8359 139.092 11.2252C136.532 13.5719 133.887 16.1106 131.156 18.8412C128.468 21.5719 125.737 24.2172 122.964 26.7772C120.191 29.3372 117.46 31.5986 114.772 33.5612C112.084 35.4812 109.481 36.8039 106.964 37.5292ZM98.132 14.2972C98.2173 13.3586 98.6653 12.2919 99.476 11.0972C100.287 9.90257 101.353 8.7719 102.676 7.70523C103.999 6.5959 105.492 5.67856 107.156 4.95323C108.82 4.2279 110.548 3.86523 112.34 3.86523C114.132 3.86523 115.903 4.12123 117.652 4.63323C119.401 5.14523 121.044 5.67857 122.58 6.23323C124.159 6.74523 125.545 7.00123 126.74 7.00123C128.02 7.00123 129.236 6.76656 130.388 6.29723C131.54 5.8279 132.521 5.3159 133.332 4.76123C134.185 4.20657 134.719 3.82257 134.932 3.60923C135.273 3.31056 135.465 3.22523 135.508 3.35323C135.593 3.43857 135.529 3.60923 135.316 3.86523C135.188 4.0359 134.697 4.50523 133.844 5.27323C133.033 5.99857 131.881 6.70257 130.388 7.38523C128.895 8.0679 127.124 8.40923 125.076 8.40923C123.54 8.40923 122.196 8.28123 121.044 8.02523C119.935 7.76923 118.868 7.4919 117.844 7.19323C116.863 6.8519 115.839 6.55323 114.772 6.29723C113.748 6.04123 112.553 5.91323 111.188 5.91323C109.609 5.91323 108.095 6.2119 106.644 6.80923C105.151 7.40657 103.828 8.15323 102.676 9.04923C101.524 9.94523 100.628 10.8626 99.988 11.8012C99.3053 12.6972 98.9853 13.4652 99.028 14.1052C99.0707 14.5319 98.9213 14.8306 98.58 15.0012C98.2387 15.1719 98.0893 14.9372 98.132 14.2972Z"/>
<path d="M155.219 36.8252C154.622 36.8252 153.96 36.6546 153.235 36.3132C152.467 36.0146 152.083 35.5026 152.083 34.7772C152.083 33.8812 152.488 32.7506 153.299 31.3852C154.11 30.0199 155.112 28.6119 156.307 27.1612C157.459 25.7106 158.59 24.3452 159.699 23.0652C160.808 21.7852 161.64 20.7826 162.195 20.0572C162.664 20.0999 163.219 20.1212 163.859 20.1212C164.542 20.1212 165.139 20.0999 165.651 20.0572C165.054 20.7826 164.264 21.6999 163.283 22.8092C162.344 23.9186 161.342 25.1132 160.275 26.3932C159.251 27.6306 158.248 28.8466 157.267 30.0412C156.328 31.2359 155.56 32.3026 154.963 33.2412C154.366 34.1799 154.067 34.8626 154.067 35.2892C154.067 35.5879 154.195 35.8012 154.451 35.9292C154.707 36.0572 155.134 36.1212 155.731 36.1212C156.755 36.1212 157.886 35.7372 159.123 34.9692C160.403 34.1586 161.64 33.1986 162.835 32.0892C164.03 30.9799 165.096 29.9346 166.035 28.9532C166.974 27.9292 167.635 27.1826 168.019 26.7132L168.531 27.1612C168.147 27.5879 167.486 28.3346 166.547 29.4012C165.651 30.4252 164.563 31.5132 163.283 32.6652C162.046 33.8172 160.723 34.7986 159.315 35.6092C157.95 36.4199 156.584 36.8252 155.219 36.8252ZM168.019 15.1932C167.507 15.1932 167.123 15.0439 166.867 14.7452C166.611 14.4039 166.483 14.0199 166.483 13.5932C166.483 13.1239 166.739 12.6332 167.251 12.1212C167.763 11.6092 168.296 11.3532 168.851 11.3532C169.448 11.3532 169.875 11.5239 170.131 11.8652C170.387 12.1639 170.515 12.4626 170.515 12.7612C170.515 13.4012 170.259 13.9772 169.747 14.4892C169.235 14.9586 168.659 15.1932 168.019 15.1932Z"/>
<path d="M181.441 36.8252C179.179 36.8252 178.049 36.1639 178.049 34.8412C178.049 33.9879 178.326 33.0706 178.88 32.0892C179.478 31.1079 180.203 30.1266 181.057 29.1452C181.91 28.1212 182.763 27.1186 183.617 26.1372C184.512 25.1559 185.238 24.2599 185.792 23.4492C186.39 22.5959 186.689 21.8706 186.689 21.2732C186.689 21.0599 186.582 20.8892 186.368 20.7612C186.198 20.5906 185.942 20.5052 185.6 20.5052C185.089 20.5052 184.363 20.7612 183.424 21.2732C182.529 21.7852 181.377 22.6599 179.969 23.8972C178.603 25.0919 176.982 26.7132 175.105 28.7612C173.227 30.7666 171.073 33.2839 168.641 36.3132C168.257 36.2279 167.681 36.1852 166.913 36.1852C166.145 36.1852 165.483 36.2706 164.928 36.4412C166.166 34.6492 167.382 32.8999 168.577 31.1932C169.771 29.4866 170.859 27.9292 171.84 26.5212C172.865 25.1132 173.675 23.9612 174.273 23.0652C174.87 22.1266 175.169 21.5506 175.169 21.3372C175.169 20.9532 174.977 20.7612 174.592 20.7612C174.166 20.7612 173.632 21.1026 172.992 21.7852C172.352 22.4252 171.648 23.2572 170.88 24.2812C170.112 25.2626 169.323 26.2652 168.512 27.2892L167.936 26.9052C168.79 25.9239 169.622 24.8999 170.432 23.8332C171.243 22.7666 172.075 21.8492 172.928 21.0812C173.782 20.3132 174.678 19.9292 175.617 19.9292C176.086 19.9292 176.512 20.0572 176.896 20.3132C177.323 20.5266 177.536 20.8892 177.536 21.4012C177.536 21.8706 177.344 22.4466 176.96 23.1292C176.619 23.7692 176.15 24.5159 175.553 25.3692C174.955 26.1799 174.273 27.0972 173.505 28.1212C172.779 29.1026 172.011 30.1692 171.201 31.3212L171.264 31.7052C173.526 29.2306 175.424 27.2252 176.96 25.6892C178.539 24.1532 179.84 22.9799 180.865 22.1692C181.931 21.3159 182.848 20.7399 183.617 20.4412C184.427 20.0999 185.195 19.9292 185.921 19.9292C186.902 19.9292 187.606 20.1426 188.033 20.5692C188.459 20.9532 188.673 21.4866 188.673 22.1692C188.673 23.1932 188.374 24.2812 187.777 25.4332C187.179 26.5426 186.432 27.6519 185.536 28.7612C184.683 29.8279 183.809 30.8306 182.913 31.7692C182.059 32.6652 181.334 33.4332 180.736 34.0732C180.139 34.7132 179.84 35.1399 179.84 35.3532C179.84 35.6092 179.904 35.8012 180.033 35.9292C180.203 36.0572 180.609 36.1212 181.249 36.1212C182.827 36.1212 184.32 35.6306 185.729 34.6492C187.179 33.6679 188.566 32.4732 189.889 31.0652C191.211 29.6146 192.448 28.1852 193.6 26.7772L194.113 27.2252C192.961 28.5906 191.702 30.0199 190.337 31.5132C188.971 33.0066 187.542 34.2652 186.049 35.2892C184.555 36.3132 183.019 36.8252 181.441 36.8252Z"/>
<path d="M196.507 36.8252C194.502 36.8252 193.179 36.3772 192.539 35.4812C191.899 34.5426 191.579 33.5612 191.579 32.5372C191.579 30.7879 192.027 29.1666 192.923 27.6732C193.819 26.1372 194.971 24.7719 196.379 23.5772C197.787 22.3826 199.238 21.4652 200.731 20.8252C202.267 20.1426 203.632 19.8012 204.827 19.8012C205.68 19.8012 206.363 19.9292 206.875 20.1852C207.387 20.3986 207.643 20.8679 207.643 21.5932C207.643 22.2759 207.238 23.0012 206.427 23.7692C205.616 24.5372 204.592 25.2839 203.355 26.0092C202.118 26.6919 200.816 27.3319 199.451 27.9292C198.128 28.4839 196.912 28.9319 195.803 29.2732C194.694 29.6146 193.883 29.7852 193.371 29.7852C193.371 29.7852 193.371 29.6786 193.371 29.4652C193.371 29.2092 193.371 29.0812 193.371 29.0812C193.755 29.1239 194.416 28.9959 195.355 28.6972C196.336 28.3986 197.424 28.0146 198.619 27.5452C199.814 27.0332 200.966 26.4572 202.075 25.8172C203.227 25.1772 204.166 24.4946 204.891 23.7692C205.659 23.0439 206.043 22.3399 206.043 21.6572C206.043 21.3159 205.936 21.0172 205.723 20.7612C205.552 20.5052 205.232 20.3772 204.763 20.3772C204.08 20.3772 203.248 20.7186 202.267 21.4012C201.328 22.0412 200.368 22.8946 199.387 23.9612C198.406 25.0279 197.488 26.1586 196.635 27.3532C195.782 28.5479 195.078 29.6999 194.523 30.8092C194.011 31.8759 193.755 32.7719 193.755 33.4972C193.755 34.3506 194.011 34.9906 194.523 35.4172C195.035 35.8439 195.782 36.0572 196.763 36.0572C198.47 36.0572 200.07 35.6519 201.563 34.8412C203.099 33.9879 204.486 33.0066 205.723 31.8972C206.96 30.7452 208.006 29.6786 208.859 28.6972C209.712 27.6732 210.288 27.0119 210.587 26.7132C210.587 26.7132 210.651 26.7772 210.779 26.9052C210.95 27.0332 211.035 27.0972 211.035 27.0972C210.736 27.4386 210.16 28.1212 209.307 29.1452C208.454 30.1692 207.387 31.2786 206.107 32.4732C204.827 33.6679 203.376 34.6919 201.755 35.5452C200.134 36.3986 198.384 36.8252 196.507 36.8252Z"/>
<path d="M210.436 27.8652C210.266 28.0359 210.138 28.0572 210.053 27.9292C209.967 27.7586 209.946 27.5879 209.988 27.4172C210.714 26.6919 211.418 25.8386 212.1 24.8572C212.826 23.8759 213.423 22.9586 213.893 22.1052C214.404 21.2519 214.703 20.6759 214.788 20.3772C214.874 20.3772 215.002 20.3132 215.173 20.1852C215.386 20.0572 215.578 20.0146 215.749 20.0572C215.706 20.3559 215.642 20.6332 215.557 20.8892C215.514 21.1452 215.663 21.3799 216.005 21.5932C216.346 21.8066 217.05 22.0199 218.117 22.2332C219.183 22.4466 220.805 22.6812 222.98 22.9372C223.194 22.9799 223.343 23.0652 223.428 23.1932C223.557 23.2786 223.492 23.4279 223.236 23.6412C222.426 24.2812 221.53 25.0919 220.549 26.0732C219.567 27.0546 218.607 28.0999 217.669 29.2092C216.773 30.2759 216.026 31.3212 215.428 32.3452C214.874 33.3692 214.596 34.2226 214.596 34.9052C214.596 35.6732 214.938 36.0572 215.62 36.0572C216.474 36.0572 217.434 35.7159 218.501 35.0332C219.61 34.3506 220.719 33.5186 221.829 32.5372C222.938 31.5132 223.962 30.4892 224.9 29.4652C225.882 28.3986 226.693 27.5239 227.333 26.8412L227.844 27.2252C227.247 27.8226 226.479 28.6546 225.54 29.7212C224.602 30.7879 223.535 31.8759 222.34 32.9852C221.189 34.0519 219.951 34.9692 218.628 35.7372C217.306 36.4626 215.941 36.8252 214.533 36.8252C213.722 36.8252 212.997 36.6332 212.357 36.2492C211.717 35.9079 211.396 35.2679 211.396 34.3292C211.396 33.4332 211.78 32.4946 212.548 31.5132C213.316 30.5319 214.277 29.5506 215.428 28.5692C216.58 27.5452 217.775 26.5852 219.012 25.6892C220.292 24.7506 221.423 23.8972 222.404 23.1292L222.852 23.7052C222.426 23.5346 221.679 23.3852 220.613 23.2572C219.546 23.0866 218.436 22.8732 217.285 22.6172C216.133 22.3186 215.13 21.9346 214.277 21.4652C213.466 20.9959 213.061 20.3559 213.061 19.5452C213.061 19.1186 213.231 18.6066 213.572 18.0092C213.956 17.3692 214.469 17.0492 215.109 17.0492C215.706 17.0492 216.111 17.1772 216.324 17.4332C216.538 17.6466 216.645 17.9452 216.645 18.3292C216.645 18.5852 216.431 19.1186 216.005 19.9292C215.578 20.6972 215.044 21.6146 214.404 22.6812C213.764 23.7052 213.082 24.6866 212.357 25.6252C211.674 26.5639 211.034 27.3106 210.436 27.8652Z"/>
<path d="M233.649 19.9932C234.246 20.1639 234.865 20.2492 235.505 20.2492C236.145 20.2066 236.806 20.1639 237.489 20.1212C236.337 21.2306 235.036 22.5532 233.585 24.0892C232.177 25.5826 230.812 27.0972 229.489 28.6332C228.209 30.1266 227.142 31.4706 226.289 32.6652C225.436 33.8172 225.009 34.6066 225.009 35.0332C225.009 35.3319 225.116 35.6092 225.329 35.8652C225.542 36.0786 225.905 36.1852 226.417 36.1852C227.91 36.1852 229.446 35.7372 231.025 34.8412C232.646 33.9452 234.204 32.8146 235.697 31.4492C237.233 30.0412 238.662 28.5906 239.985 27.0972C241.308 25.5612 242.46 24.1746 243.441 22.9372C244.465 21.6572 245.212 20.7186 245.681 20.1212C246.022 20.2066 246.577 20.2492 247.345 20.2492C248.156 20.2492 248.71 20.2279 249.009 20.1852C244.614 25.4759 240.753 30.3399 237.425 34.7772C234.14 39.1719 231.174 42.9479 228.529 46.1052C225.884 49.3052 223.366 51.7799 220.977 53.5292C218.545 55.2786 216.006 56.1532 213.361 56.1532C211.74 56.1532 210.929 55.5132 210.929 54.2332C210.929 53.2946 211.526 52.3132 212.721 51.2892C213.873 50.2652 215.43 49.1986 217.393 48.0892C219.356 47.0226 221.532 45.9559 223.921 44.8892C226.31 43.8226 228.742 42.7986 231.217 41.8172C234.46 40.5372 237.126 39.1292 239.217 37.5932C241.35 36.0999 243.206 34.4572 244.785 32.6652C246.406 30.8732 248.049 28.9106 249.713 26.7772L250.225 27.0972C248.518 29.2732 246.833 31.2786 245.169 33.1132C243.505 34.9052 241.606 36.5692 239.473 38.1052C237.34 39.6412 234.652 41.0706 231.409 42.3932C228.977 43.3746 226.609 44.3772 224.305 45.4012C221.958 46.4679 219.846 47.4919 217.969 48.4732C216.049 49.4972 214.534 50.4999 213.425 51.4812C212.273 52.4626 211.697 53.3799 211.697 54.2332C211.697 54.7452 211.868 55.0652 212.209 55.1932C212.55 55.3639 212.998 55.4492 213.553 55.4492C214.876 55.4492 216.305 54.9372 217.841 53.9132C219.334 52.8892 220.913 51.5026 222.577 49.7532C224.241 48.0039 225.926 46.0199 227.633 43.8012C229.382 41.6252 231.153 39.3639 232.945 37.0172C234.737 34.6706 236.55 32.3879 238.385 30.1692L238.129 30.0412C238.044 30.1692 237.745 30.4892 237.233 31.0012C236.721 31.5132 236.06 32.0892 235.249 32.7292C234.438 33.3692 233.521 34.0092 232.497 34.6492C231.473 35.2892 230.385 35.8226 229.233 36.2492C228.124 36.6332 226.993 36.8252 225.841 36.8252C225.03 36.8252 224.412 36.6332 223.985 36.2492C223.516 35.9079 223.281 35.4172 223.281 34.7772C223.281 33.7532 223.622 32.6012 224.305 31.3212C224.988 29.9986 225.884 28.6546 226.993 27.2892C228.06 25.9239 229.19 24.6012 230.385 23.3212C231.58 22.0412 232.668 20.9319 233.649 19.9932Z"/>
</mask>
<path d="M30.312 2.96923C30.6107 3.05456 30.7173 3.18257 30.632 3.35323C30.5893 3.48123 30.2907 3.4599 29.736 3.28923C27.9013 2.77723 25.8747 2.67056 23.656 2.96923C21.4373 3.22523 19.304 3.82257 17.256 4.76123C15.2507 5.65723 13.608 6.80923 12.328 8.21723C11.048 9.58257 10.408 11.1186 10.408 12.8252C10.408 14.0626 10.792 15.1292 11.56 16.0252C12.328 16.9212 13.3307 17.6679 14.568 18.2652C15.848 18.8199 17.256 19.2466 18.792 19.5452C20.3707 19.8012 21.9493 19.9292 23.528 19.9292C25.7467 19.9292 27.9013 19.5879 29.992 18.9052C32.0827 18.1799 34.0027 17.2412 35.752 16.0892C37.5013 14.9372 39.0373 13.6999 40.36 12.3772C41.6827 11.0119 42.7067 9.68923 43.432 8.40923C44.1573 7.08656 44.52 5.93456 44.52 4.95323C44.52 3.5879 43.7947 2.90523 42.344 2.90523C40.8933 2.90523 39.4427 3.5239 37.992 4.76123C36.584 5.9559 35.1333 7.57723 33.64 9.62523C32.1467 11.6306 30.6107 13.8492 29.032 16.2812C27.4533 18.6706 25.8107 21.0812 24.104 23.5132C22.44 25.9026 20.6907 28.1212 18.856 30.1692C17.0213 32.1746 15.08 33.7959 13.032 35.0332C11.0267 36.2279 8.91467 36.8252 6.696 36.8252C4.648 36.8252 3.19733 36.4626 2.344 35.7372C1.448 35.0119 1 34.1799 1 33.2412C1 32.7719 1.23467 32.3452 1.704 31.9612C2.13067 31.5772 2.62133 31.3852 3.176 31.3852C4.072 31.3852 4.52 31.7906 4.52 32.6012C4.52 33.0279 4.328 33.3266 3.944 33.4972C3.56 33.6679 3.26133 33.7532 3.048 33.7532C2.792 33.7532 2.55733 33.7106 2.344 33.6252C2.088 33.5399 1.96 33.4972 1.96 33.4972C1.96 33.9666 2.28 34.5426 2.92 35.2252C3.51733 35.9079 4.66933 36.2492 6.376 36.2492C8.168 36.2492 9.78933 35.7586 11.24 34.7772C12.7333 33.7959 14.12 32.4732 15.4 30.8092C16.68 29.1452 17.9387 27.2892 19.176 25.2412C20.4133 23.1932 21.7147 21.0812 23.08 18.9052C24.4453 16.8146 25.896 14.7879 27.432 12.8252C28.968 10.8199 30.5467 9.0279 32.168 7.44923C33.832 5.87056 35.5173 4.6119 37.224 3.67323C38.9307 2.73457 40.616 2.26523 42.28 2.26523C44.584 2.26523 45.736 3.2039 45.736 5.08123C45.736 6.6599 45.0747 8.34523 43.752 10.1372C42.472 11.9292 40.744 13.6146 38.568 15.1932C36.4347 16.7719 34.0453 18.0732 31.4 19.0972C28.7547 20.0786 26.088 20.5692 23.4 20.5692C21.6507 20.5692 19.9013 20.4199 18.152 20.1212C16.4453 19.8226 14.888 19.3532 13.48 18.7132C12.072 18.0732 10.9413 17.2412 10.088 16.2172C9.23467 15.1932 8.808 13.9772 8.808 12.5692C8.808 10.9479 9.34133 9.49723 10.408 8.21723C11.4747 6.93723 12.84 5.87056 14.504 5.01723C16.2107 4.12123 18.024 3.43857 19.944 2.96923C21.9067 2.4999 23.8053 2.26523 25.64 2.26523C27.4747 2.26523 29.032 2.4999 30.312 2.96923Z" fill="#871C1C"/>
<path d="M46.488 8.60123C46.872 8.7719 47.4267 8.85723 48.152 8.85723C48.92 8.81456 49.5173 8.75056 49.944 8.66523C48.5787 10.5426 47.064 12.6119 45.4 14.8732C43.736 17.1346 42.0507 19.3959 40.344 21.6572C38.68 23.8759 37.1227 25.9666 35.672 27.9292C34.264 29.8492 33.1333 31.4706 32.28 32.7932C31.4267 34.1159 31 34.9479 31 35.2892C31 35.5452 31.1493 35.7372 31.448 35.8652C31.704 35.9932 32.0453 36.0572 32.472 36.0572C33.4107 36.0572 34.4347 35.7372 35.544 35.0972C36.696 34.4146 37.8267 33.5826 38.936 32.6012C40.088 31.5772 41.1333 30.5532 42.072 29.5292C43.0533 28.4626 43.8213 27.5452 44.376 26.7772L44.888 27.1612C44.2907 27.9292 43.5013 28.8466 42.52 29.9132C41.5387 30.9799 40.4507 32.0466 39.256 33.1132C38.0613 34.1799 36.824 35.0759 35.544 35.8012C34.3067 36.4839 33.112 36.8252 31.96 36.8252C31.1493 36.8252 30.5093 36.6546 30.04 36.3132C29.528 36.0146 29.272 35.4812 29.272 34.7132C29.272 34.0306 29.6773 32.9852 30.488 31.5772C31.2987 30.1266 32.344 28.4626 33.624 26.5852C34.9467 24.7079 36.376 22.7239 37.912 20.6332C39.448 18.4999 40.9627 16.4092 42.456 14.3612C43.992 12.2706 45.336 10.3506 46.488 8.60123ZM39.448 15.7692C39.0213 15.7692 38.808 15.6412 38.808 15.3852C38.808 15.1719 39.0213 15.0652 39.448 15.0652H51.608C51.736 15.0652 51.864 15.0866 51.992 15.1292C52.1627 15.1719 52.248 15.2572 52.248 15.3852C52.248 15.5559 52.1627 15.6626 51.992 15.7052C51.864 15.7479 51.736 15.7692 51.608 15.7692H39.448Z" fill="#871C1C"/>
<path d="M55.321 19.9292C57.4543 19.9292 58.521 20.9532 58.521 23.0012C58.521 24.5799 58.1583 26.2012 57.433 27.8652C56.7077 29.4866 55.7263 30.9799 54.489 32.3452C53.2517 33.6679 51.9077 34.7559 50.457 35.6092C49.0063 36.4199 47.5343 36.8252 46.041 36.8252C44.889 36.8252 43.929 36.5479 43.161 35.9932C42.3503 35.3959 41.945 34.4359 41.945 33.1132C41.945 31.8759 42.3077 30.5106 43.033 29.0172C43.7583 27.4812 44.7397 26.0306 45.977 24.6652C47.257 23.2999 48.6863 22.1692 50.265 21.2732C51.8863 20.3772 53.5717 19.9292 55.321 19.9292ZM56.025 20.8252C55.2997 20.8252 54.4463 21.1452 53.465 21.7852C52.4837 22.4252 51.481 23.2572 50.457 24.2812C49.433 25.3052 48.473 26.4146 47.577 27.6092C46.7237 28.7612 46.0197 29.8919 45.465 31.0012C44.953 32.1106 44.697 33.0492 44.697 33.8172C44.697 34.6706 44.9317 35.2679 45.401 35.6092C45.8703 35.9079 46.4037 36.0572 47.001 36.0572C47.9823 36.0572 49.0917 35.6519 50.329 34.8412C51.5663 33.9879 52.761 32.9212 53.913 31.6412C55.065 30.3612 56.0037 29.0172 56.729 27.6092C57.497 26.1586 57.881 24.8359 57.881 23.6412C57.881 22.5319 57.689 21.7852 57.305 21.4012C56.921 21.0172 56.4943 20.8252 56.025 20.8252ZM57.177 27.4172C57.3903 27.4172 57.4757 27.5026 57.433 27.6732C57.433 27.8012 57.3263 27.8652 57.113 27.8652C56.9423 27.8652 56.6863 28.0999 56.345 28.5692C56.0463 28.9959 55.769 29.4439 55.513 29.9132C55.257 30.3826 55.129 30.6386 55.129 30.6812C55.129 31.6626 55.4917 32.1532 56.217 32.1532C56.8997 32.1532 57.6677 31.8332 58.521 31.1932C59.417 30.5532 60.2703 29.8279 61.081 29.0172C61.9343 28.1639 62.617 27.4172 63.129 26.7772L63.641 27.2252C63.0863 27.8652 62.3823 28.6332 61.529 29.5292C60.6757 30.3826 59.7797 31.1506 58.841 31.8332C57.9023 32.4732 57.0277 32.7932 56.217 32.7932C55.5343 32.7932 55.065 32.6439 54.809 32.3452C54.553 32.0466 54.425 31.5132 54.425 30.7452C54.425 29.7212 54.7663 28.9106 55.449 28.3132C56.1743 27.7159 56.7503 27.4172 57.177 27.4172Z" fill="#871C1C"/>
<path d="M61.7815 36.8252C61.1842 36.8252 60.5228 36.6546 59.7975 36.3132C59.0295 36.0146 58.6455 35.5026 58.6455 34.7772C58.6455 33.8812 59.0508 32.7506 59.8615 31.3852C60.6722 30.0199 61.6748 28.6119 62.8695 27.1612C64.0215 25.7106 65.1522 24.3452 66.2615 23.0652C67.3708 21.7852 68.2028 20.7826 68.7575 20.0572C69.2268 20.0999 69.7815 20.1212 70.4215 20.1212C71.1042 20.1212 71.7015 20.0999 72.2135 20.0572C71.6162 20.7826 70.8268 21.6999 69.8455 22.8092C68.9068 23.9186 67.9042 25.1132 66.8375 26.3932C65.8135 27.6306 64.8108 28.8466 63.8295 30.0412C62.8908 31.2359 62.1228 32.3026 61.5255 33.2412C60.9282 34.1799 60.6295 34.8626 60.6295 35.2892C60.6295 35.5879 60.7575 35.8012 61.0135 35.9292C61.2695 36.0572 61.6962 36.1212 62.2935 36.1212C63.3175 36.1212 64.4482 35.7372 65.6855 34.9692C66.9655 34.1586 68.2028 33.1986 69.3975 32.0892C70.5922 30.9799 71.6588 29.9346 72.5975 28.9532C73.5362 27.9292 74.1975 27.1826 74.5815 26.7132L75.0935 27.1612C74.7095 27.5879 74.0482 28.3346 73.1095 29.4012C72.2135 30.4252 71.1255 31.5132 69.8455 32.6652C68.6082 33.8172 67.2855 34.7986 65.8775 35.6092C64.5122 36.4199 63.1468 36.8252 61.7815 36.8252ZM74.5815 15.1932C74.0695 15.1932 73.6855 15.0439 73.4295 14.7452C73.1735 14.4039 73.0455 14.0199 73.0455 13.5932C73.0455 13.1239 73.3015 12.6332 73.8135 12.1212C74.3255 11.6092 74.8588 11.3532 75.4135 11.3532C76.0108 11.3532 76.4375 11.5239 76.6935 11.8652C76.9495 12.1639 77.0775 12.4626 77.0775 12.7612C77.0775 13.4012 76.8215 13.9772 76.3095 14.4892C75.7975 14.9586 75.2215 15.1932 74.5815 15.1932Z" fill="#871C1C"/>
<path d="M86.851 24.7932C86.2537 24.7932 85.8057 24.6652 85.507 24.4092C85.251 24.1106 85.123 23.7692 85.123 23.3852C85.123 23.0012 85.2723 22.6386 85.571 22.2972C85.9123 21.9132 86.3603 21.7212 86.915 21.7212C87.2563 21.7212 87.555 21.7639 87.811 21.8492C88.067 21.9346 88.195 21.9772 88.195 21.9772C88.2377 21.5506 88.131 21.1879 87.875 20.8892C87.619 20.5479 87.1283 20.3772 86.403 20.3772C85.7203 20.3772 84.8883 20.6759 83.907 21.2732C82.9257 21.8706 81.9017 22.6599 80.835 23.6412C79.811 24.6226 78.8297 25.6892 77.891 26.8412C76.995 27.9932 76.2697 29.1666 75.715 30.3612C75.1603 31.5132 74.883 32.5586 74.883 33.4972C74.883 34.5639 75.2243 35.2679 75.907 35.6092C76.5897 35.9506 77.3363 36.1212 78.147 36.1212C79.683 36.1212 81.1977 35.7586 82.691 35.0332C84.1843 34.2652 85.5497 33.3479 86.787 32.2812C88.067 31.1719 89.155 30.1052 90.051 29.0812C90.947 28.0572 91.587 27.2679 91.971 26.7132L92.547 27.0972C92.2057 27.6092 91.5657 28.3986 90.627 29.4652C89.6883 30.5319 88.5363 31.6412 87.171 32.7932C85.8483 33.9026 84.3763 34.8626 82.755 35.6732C81.1337 36.4412 79.427 36.8252 77.635 36.8252C76.1843 36.8252 74.9683 36.5052 73.987 35.8652C72.963 35.1826 72.451 34.1372 72.451 32.7292C72.451 31.5346 72.7923 30.2119 73.475 28.7612C74.1577 27.2679 75.0963 25.8599 76.291 24.5372C77.5283 23.1719 78.979 22.0626 80.643 21.2092C82.3497 20.3132 84.227 19.8652 86.275 19.8652C87.0857 19.8652 87.7897 20.0359 88.387 20.3772C88.9843 20.7186 89.283 21.3159 89.283 22.1692C89.283 22.9372 89.0057 23.5772 88.451 24.0892C87.939 24.5586 87.4057 24.7932 86.851 24.7932Z" fill="#871C1C"/>
<path d="M106.964 37.5292C106.281 37.7426 105.961 37.6999 106.004 37.4012C106.004 37.1452 106.153 36.9959 106.452 36.9532C107.177 36.8252 107.881 36.5479 108.564 36.1212C109.247 35.6946 109.844 35.2039 110.356 34.6492C111.039 33.9239 111.977 32.6866 113.172 30.9372C114.367 29.1879 115.796 27.1399 117.46 24.7932C119.167 22.4039 121.065 19.9719 123.156 17.4972C125.161 15.1506 127.487 12.6332 130.132 9.94523C132.82 7.25723 135.657 4.4839 138.644 1.62523C138.985 1.32656 139.305 1.19856 139.604 1.24123C139.903 1.2839 140.095 1.39056 140.18 1.56123C140.265 1.68923 140.116 1.7959 139.732 1.88123C139.433 1.9239 139.135 2.09456 138.836 2.39323C138.58 2.64923 138.388 2.84123 138.26 2.96923C137.108 4.07856 135.785 5.6359 134.292 7.64123C132.799 9.6039 131.135 11.8226 129.3 14.2972C127.508 16.7719 125.567 19.3532 123.476 22.0412C121.385 24.6866 119.167 27.2679 116.82 29.7852C114.473 32.2599 111.999 34.4999 109.396 36.5052C109.097 36.7186 108.841 36.7399 108.628 36.5692C108.372 36.3986 108.564 36.2066 109.204 35.9932C110.655 35.5239 112.404 34.5212 114.452 32.9852C116.5 31.4066 118.74 29.5079 121.172 27.2892C123.604 25.0706 126.121 22.7026 128.724 20.1852C131.327 17.6679 133.929 15.1932 136.532 12.7612C139.177 10.2866 141.695 8.04657 144.084 6.04123C146.473 3.99323 148.671 2.39323 150.676 1.24123C151.188 0.942564 151.465 0.921231 151.508 1.17723C151.593 1.43323 151.508 1.62523 151.252 1.75323C151.039 1.83857 150.505 2.1799 149.652 2.77723C148.799 3.3319 148.137 3.8439 147.668 4.31323C147.327 4.65456 146.729 5.48656 145.876 6.80923C145.065 8.08923 144.084 9.68923 142.932 11.6092C141.78 13.5292 140.5 15.6199 139.092 17.8812C137.727 20.0999 136.297 22.3186 134.804 24.5372C133.353 26.7559 131.903 28.8039 130.452 30.6812C129.001 32.5586 127.636 34.0946 126.356 35.2892C126.143 35.4599 126.015 35.4812 125.972 35.3532C125.929 35.2252 125.951 35.0332 126.036 34.7772C126.121 34.5212 126.249 34.3292 126.42 34.2012C128.553 32.3666 130.751 30.2972 133.012 27.9932C135.316 25.6892 137.641 23.3426 139.988 20.9532C142.377 18.5212 144.745 16.1746 147.092 13.9132C149.481 11.6519 151.828 9.62523 154.132 7.83323C156.436 6.04123 158.676 4.6119 160.852 3.54523C163.028 2.47856 165.097 1.94523 167.06 1.94523C168.255 1.94523 169.385 2.20123 170.452 2.71323C171.561 3.22523 172.116 4.0999 172.116 5.33723C172.116 6.4039 171.775 7.2999 171.092 8.02523C170.409 8.75056 169.577 9.30523 168.596 9.68923C167.657 10.0306 166.719 10.2012 165.78 10.2012C164.457 10.2012 163.455 9.94523 162.772 9.43323C162.089 8.87857 161.663 8.3879 161.492 7.96123C161.321 7.57723 161.471 7.2999 161.94 7.12923C162.409 6.95856 162.644 7.08656 162.644 7.51323C162.644 8.1959 163.007 8.72923 163.732 9.11323C164.457 9.45457 165.225 9.62523 166.036 9.62523C166.761 9.62523 167.487 9.45457 168.212 9.11323C168.937 8.7719 169.535 8.28123 170.004 7.64123C170.516 6.95856 170.772 6.19056 170.772 5.33723C170.772 4.56923 170.388 3.95056 169.62 3.48123C168.895 2.96923 168.041 2.71323 167.06 2.71323C165.14 2.71323 163.092 3.24656 160.916 4.31323C158.74 5.3799 156.521 6.80923 154.26 8.60123C151.999 10.3506 149.716 12.3346 147.412 14.5532C145.151 16.7292 142.932 18.9692 140.756 21.2732C138.58 23.5346 136.489 25.7106 134.484 27.8012C132.521 29.8492 130.687 31.6412 128.98 33.1772C127.871 34.2012 126.868 35.0546 125.972 35.7372C125.119 36.4199 124.009 37.0172 122.644 37.5292C121.961 37.7852 121.599 37.7426 121.556 37.4012C121.556 37.1026 121.812 36.8892 122.324 36.7612C123.177 36.5479 123.988 36.0786 124.756 35.3532C125.524 34.5852 126.185 33.6252 126.74 32.4732C127.593 30.7239 128.724 28.7186 130.132 26.4572C131.583 24.1959 133.14 21.8706 134.804 19.4812C136.468 17.0919 138.132 14.8306 139.796 12.6972C141.503 10.5212 143.039 8.62256 144.404 7.00123C145.769 5.3799 146.857 4.2279 147.668 3.54523C147.839 3.37456 147.86 3.5239 147.732 3.99323C147.604 4.4199 147.135 4.88923 146.324 5.40123C144.063 6.89456 141.652 8.8359 139.092 11.2252C136.532 13.5719 133.887 16.1106 131.156 18.8412C128.468 21.5719 125.737 24.2172 122.964 26.7772C120.191 29.3372 117.46 31.5986 114.772 33.5612C112.084 35.4812 109.481 36.8039 106.964 37.5292ZM98.132 14.2972C98.2173 13.3586 98.6653 12.2919 99.476 11.0972C100.287 9.90257 101.353 8.7719 102.676 7.70523C103.999 6.5959 105.492 5.67856 107.156 4.95323C108.82 4.2279 110.548 3.86523 112.34 3.86523C114.132 3.86523 115.903 4.12123 117.652 4.63323C119.401 5.14523 121.044 5.67857 122.58 6.23323C124.159 6.74523 125.545 7.00123 126.74 7.00123C128.02 7.00123 129.236 6.76656 130.388 6.29723C131.54 5.8279 132.521 5.3159 133.332 4.76123C134.185 4.20657 134.719 3.82257 134.932 3.60923C135.273 3.31056 135.465 3.22523 135.508 3.35323C135.593 3.43857 135.529 3.60923 135.316 3.86523C135.188 4.0359 134.697 4.50523 133.844 5.27323C133.033 5.99857 131.881 6.70257 130.388 7.38523C128.895 8.0679 127.124 8.40923 125.076 8.40923C123.54 8.40923 122.196 8.28123 121.044 8.02523C119.935 7.76923 118.868 7.4919 117.844 7.19323C116.863 6.8519 115.839 6.55323 114.772 6.29723C113.748 6.04123 112.553 5.91323 111.188 5.91323C109.609 5.91323 108.095 6.2119 106.644 6.80923C105.151 7.40657 103.828 8.15323 102.676 9.04923C101.524 9.94523 100.628 10.8626 99.988 11.8012C99.3053 12.6972 98.9853 13.4652 99.028 14.1052C99.0707 14.5319 98.9213 14.8306 98.58 15.0012C98.2387 15.1719 98.0893 14.9372 98.132 14.2972Z" fill="#871C1C"/>
<path d="M155.219 36.8252C154.622 36.8252 153.96 36.6546 153.235 36.3132C152.467 36.0146 152.083 35.5026 152.083 34.7772C152.083 33.8812 152.488 32.7506 153.299 31.3852C154.11 30.0199 155.112 28.6119 156.307 27.1612C157.459 25.7106 158.59 24.3452 159.699 23.0652C160.808 21.7852 161.64 20.7826 162.195 20.0572C162.664 20.0999 163.219 20.1212 163.859 20.1212C164.542 20.1212 165.139 20.0999 165.651 20.0572C165.054 20.7826 164.264 21.6999 163.283 22.8092C162.344 23.9186 161.342 25.1132 160.275 26.3932C159.251 27.6306 158.248 28.8466 157.267 30.0412C156.328 31.2359 155.56 32.3026 154.963 33.2412C154.366 34.1799 154.067 34.8626 154.067 35.2892C154.067 35.5879 154.195 35.8012 154.451 35.9292C154.707 36.0572 155.134 36.1212 155.731 36.1212C156.755 36.1212 157.886 35.7372 159.123 34.9692C160.403 34.1586 161.64 33.1986 162.835 32.0892C164.03 30.9799 165.096 29.9346 166.035 28.9532C166.974 27.9292 167.635 27.1826 168.019 26.7132L168.531 27.1612C168.147 27.5879 167.486 28.3346 166.547 29.4012C165.651 30.4252 164.563 31.5132 163.283 32.6652C162.046 33.8172 160.723 34.7986 159.315 35.6092C157.95 36.4199 156.584 36.8252 155.219 36.8252ZM168.019 15.1932C167.507 15.1932 167.123 15.0439 166.867 14.7452C166.611 14.4039 166.483 14.0199 166.483 13.5932C166.483 13.1239 166.739 12.6332 167.251 12.1212C167.763 11.6092 168.296 11.3532 168.851 11.3532C169.448 11.3532 169.875 11.5239 170.131 11.8652C170.387 12.1639 170.515 12.4626 170.515 12.7612C170.515 13.4012 170.259 13.9772 169.747 14.4892C169.235 14.9586 168.659 15.1932 168.019 15.1932Z" fill="#871C1C"/>
<path d="M181.441 36.8252C179.179 36.8252 178.049 36.1639 178.049 34.8412C178.049 33.9879 178.326 33.0706 178.88 32.0892C179.478 31.1079 180.203 30.1266 181.057 29.1452C181.91 28.1212 182.763 27.1186 183.617 26.1372C184.512 25.1559 185.238 24.2599 185.792 23.4492C186.39 22.5959 186.689 21.8706 186.689 21.2732C186.689 21.0599 186.582 20.8892 186.368 20.7612C186.198 20.5906 185.942 20.5052 185.6 20.5052C185.089 20.5052 184.363 20.7612 183.424 21.2732C182.529 21.7852 181.377 22.6599 179.969 23.8972C178.603 25.0919 176.982 26.7132 175.105 28.7612C173.227 30.7666 171.073 33.2839 168.641 36.3132C168.257 36.2279 167.681 36.1852 166.913 36.1852C166.145 36.1852 165.483 36.2706 164.928 36.4412C166.166 34.6492 167.382 32.8999 168.577 31.1932C169.771 29.4866 170.859 27.9292 171.84 26.5212C172.865 25.1132 173.675 23.9612 174.273 23.0652C174.87 22.1266 175.169 21.5506 175.169 21.3372C175.169 20.9532 174.977 20.7612 174.592 20.7612C174.166 20.7612 173.632 21.1026 172.992 21.7852C172.352 22.4252 171.648 23.2572 170.88 24.2812C170.112 25.2626 169.323 26.2652 168.512 27.2892L167.936 26.9052C168.79 25.9239 169.622 24.8999 170.432 23.8332C171.243 22.7666 172.075 21.8492 172.928 21.0812C173.782 20.3132 174.678 19.9292 175.617 19.9292C176.086 19.9292 176.512 20.0572 176.896 20.3132C177.323 20.5266 177.536 20.8892 177.536 21.4012C177.536 21.8706 177.344 22.4466 176.96 23.1292C176.619 23.7692 176.15 24.5159 175.553 25.3692C174.955 26.1799 174.273 27.0972 173.505 28.1212C172.779 29.1026 172.011 30.1692 171.201 31.3212L171.264 31.7052C173.526 29.2306 175.424 27.2252 176.96 25.6892C178.539 24.1532 179.84 22.9799 180.865 22.1692C181.931 21.3159 182.848 20.7399 183.617 20.4412C184.427 20.0999 185.195 19.9292 185.921 19.9292C186.902 19.9292 187.606 20.1426 188.033 20.5692C188.459 20.9532 188.673 21.4866 188.673 22.1692C188.673 23.1932 188.374 24.2812 187.777 25.4332C187.179 26.5426 186.432 27.6519 185.536 28.7612C184.683 29.8279 183.809 30.8306 182.913 31.7692C182.059 32.6652 181.334 33.4332 180.736 34.0732C180.139 34.7132 179.84 35.1399 179.84 35.3532C179.84 35.6092 179.904 35.8012 180.033 35.9292C180.203 36.0572 180.609 36.1212 181.249 36.1212C182.827 36.1212 184.32 35.6306 185.729 34.6492C187.179 33.6679 188.566 32.4732 189.889 31.0652C191.211 29.6146 192.448 28.1852 193.6 26.7772L194.113 27.2252C192.961 28.5906 191.702 30.0199 190.337 31.5132C188.971 33.0066 187.542 34.2652 186.049 35.2892C184.555 36.3132 183.019 36.8252 181.441 36.8252Z" fill="#871C1C"/>
<path d="M196.507 36.8252C194.502 36.8252 193.179 36.3772 192.539 35.4812C191.899 34.5426 191.579 33.5612 191.579 32.5372C191.579 30.7879 192.027 29.1666 192.923 27.6732C193.819 26.1372 194.971 24.7719 196.379 23.5772C197.787 22.3826 199.238 21.4652 200.731 20.8252C202.267 20.1426 203.632 19.8012 204.827 19.8012C205.68 19.8012 206.363 19.9292 206.875 20.1852C207.387 20.3986 207.643 20.8679 207.643 21.5932C207.643 22.2759 207.238 23.0012 206.427 23.7692C205.616 24.5372 204.592 25.2839 203.355 26.0092C202.118 26.6919 200.816 27.3319 199.451 27.9292C198.128 28.4839 196.912 28.9319 195.803 29.2732C194.694 29.6146 193.883 29.7852 193.371 29.7852C193.371 29.7852 193.371 29.6786 193.371 29.4652C193.371 29.2092 193.371 29.0812 193.371 29.0812C193.755 29.1239 194.416 28.9959 195.355 28.6972C196.336 28.3986 197.424 28.0146 198.619 27.5452C199.814 27.0332 200.966 26.4572 202.075 25.8172C203.227 25.1772 204.166 24.4946 204.891 23.7692C205.659 23.0439 206.043 22.3399 206.043 21.6572C206.043 21.3159 205.936 21.0172 205.723 20.7612C205.552 20.5052 205.232 20.3772 204.763 20.3772C204.08 20.3772 203.248 20.7186 202.267 21.4012C201.328 22.0412 200.368 22.8946 199.387 23.9612C198.406 25.0279 197.488 26.1586 196.635 27.3532C195.782 28.5479 195.078 29.6999 194.523 30.8092C194.011 31.8759 193.755 32.7719 193.755 33.4972C193.755 34.3506 194.011 34.9906 194.523 35.4172C195.035 35.8439 195.782 36.0572 196.763 36.0572C198.47 36.0572 200.07 35.6519 201.563 34.8412C203.099 33.9879 204.486 33.0066 205.723 31.8972C206.96 30.7452 208.006 29.6786 208.859 28.6972C209.712 27.6732 210.288 27.0119 210.587 26.7132C210.587 26.7132 210.651 26.7772 210.779 26.9052C210.95 27.0332 211.035 27.0972 211.035 27.0972C210.736 27.4386 210.16 28.1212 209.307 29.1452C208.454 30.1692 207.387 31.2786 206.107 32.4732C204.827 33.6679 203.376 34.6919 201.755 35.5452C200.134 36.3986 198.384 36.8252 196.507 36.8252Z" fill="#871C1C"/>
<path d="M210.436 27.8652C210.266 28.0359 210.138 28.0572 210.053 27.9292C209.967 27.7586 209.946 27.5879 209.988 27.4172C210.714 26.6919 211.418 25.8386 212.1 24.8572C212.826 23.8759 213.423 22.9586 213.893 22.1052C214.404 21.2519 214.703 20.6759 214.788 20.3772C214.874 20.3772 215.002 20.3132 215.173 20.1852C215.386 20.0572 215.578 20.0146 215.749 20.0572C215.706 20.3559 215.642 20.6332 215.557 20.8892C215.514 21.1452 215.663 21.3799 216.005 21.5932C216.346 21.8066 217.05 22.0199 218.117 22.2332C219.183 22.4466 220.805 22.6812 222.98 22.9372C223.194 22.9799 223.343 23.0652 223.428 23.1932C223.557 23.2786 223.492 23.4279 223.236 23.6412C222.426 24.2812 221.53 25.0919 220.549 26.0732C219.567 27.0546 218.607 28.0999 217.669 29.2092C216.773 30.2759 216.026 31.3212 215.428 32.3452C214.874 33.3692 214.596 34.2226 214.596 34.9052C214.596 35.6732 214.938 36.0572 215.62 36.0572C216.474 36.0572 217.434 35.7159 218.501 35.0332C219.61 34.3506 220.719 33.5186 221.829 32.5372C222.938 31.5132 223.962 30.4892 224.9 29.4652C225.882 28.3986 226.693 27.5239 227.333 26.8412L227.844 27.2252C227.247 27.8226 226.479 28.6546 225.54 29.7212C224.602 30.7879 223.535 31.8759 222.34 32.9852C221.189 34.0519 219.951 34.9692 218.628 35.7372C217.306 36.4626 215.941 36.8252 214.533 36.8252C213.722 36.8252 212.997 36.6332 212.357 36.2492C211.717 35.9079 211.396 35.2679 211.396 34.3292C211.396 33.4332 211.78 32.4946 212.548 31.5132C213.316 30.5319 214.277 29.5506 215.428 28.5692C216.58 27.5452 217.775 26.5852 219.012 25.6892C220.292 24.7506 221.423 23.8972 222.404 23.1292L222.852 23.7052C222.426 23.5346 221.679 23.3852 220.613 23.2572C219.546 23.0866 218.436 22.8732 217.285 22.6172C216.133 22.3186 215.13 21.9346 214.277 21.4652C213.466 20.9959 213.061 20.3559 213.061 19.5452C213.061 19.1186 213.231 18.6066 213.572 18.0092C213.956 17.3692 214.469 17.0492 215.109 17.0492C215.706 17.0492 216.111 17.1772 216.324 17.4332C216.538 17.6466 216.645 17.9452 216.645 18.3292C216.645 18.5852 216.431 19.1186 216.005 19.9292C215.578 20.6972 215.044 21.6146 214.404 22.6812C213.764 23.7052 213.082 24.6866 212.357 25.6252C211.674 26.5639 211.034 27.3106 210.436 27.8652Z" fill="#871C1C"/>
<path d="M233.649 19.9932C234.246 20.1639 234.865 20.2492 235.505 20.2492C236.145 20.2066 236.806 20.1639 237.489 20.1212C236.337 21.2306 235.036 22.5532 233.585 24.0892C232.177 25.5826 230.812 27.0972 229.489 28.6332C228.209 30.1266 227.142 31.4706 226.289 32.6652C225.436 33.8172 225.009 34.6066 225.009 35.0332C225.009 35.3319 225.116 35.6092 225.329 35.8652C225.542 36.0786 225.905 36.1852 226.417 36.1852C227.91 36.1852 229.446 35.7372 231.025 34.8412C232.646 33.9452 234.204 32.8146 235.697 31.4492C237.233 30.0412 238.662 28.5906 239.985 27.0972C241.308 25.5612 242.46 24.1746 243.441 22.9372C244.465 21.6572 245.212 20.7186 245.681 20.1212C246.022 20.2066 246.577 20.2492 247.345 20.2492C248.156 20.2492 248.71 20.2279 249.009 20.1852C244.614 25.4759 240.753 30.3399 237.425 34.7772C234.14 39.1719 231.174 42.9479 228.529 46.1052C225.884 49.3052 223.366 51.7799 220.977 53.5292C218.545 55.2786 216.006 56.1532 213.361 56.1532C211.74 56.1532 210.929 55.5132 210.929 54.2332C210.929 53.2946 211.526 52.3132 212.721 51.2892C213.873 50.2652 215.43 49.1986 217.393 48.0892C219.356 47.0226 221.532 45.9559 223.921 44.8892C226.31 43.8226 228.742 42.7986 231.217 41.8172C234.46 40.5372 237.126 39.1292 239.217 37.5932C241.35 36.0999 243.206 34.4572 244.785 32.6652C246.406 30.8732 248.049 28.9106 249.713 26.7772L250.225 27.0972C248.518 29.2732 246.833 31.2786 245.169 33.1132C243.505 34.9052 241.606 36.5692 239.473 38.1052C237.34 39.6412 234.652 41.0706 231.409 42.3932C228.977 43.3746 226.609 44.3772 224.305 45.4012C221.958 46.4679 219.846 47.4919 217.969 48.4732C216.049 49.4972 214.534 50.4999 213.425 51.4812C212.273 52.4626 211.697 53.3799 211.697 54.2332C211.697 54.7452 211.868 55.0652 212.209 55.1932C212.55 55.3639 212.998 55.4492 213.553 55.4492C214.876 55.4492 216.305 54.9372 217.841 53.9132C219.334 52.8892 220.913 51.5026 222.577 49.7532C224.241 48.0039 225.926 46.0199 227.633 43.8012C229.382 41.6252 231.153 39.3639 232.945 37.0172C234.737 34.6706 236.55 32.3879 238.385 30.1692L238.129 30.0412C238.044 30.1692 237.745 30.4892 237.233 31.0012C236.721 31.5132 236.06 32.0892 235.249 32.7292C234.438 33.3692 233.521 34.0092 232.497 34.6492C231.473 35.2892 230.385 35.8226 229.233 36.2492C228.124 36.6332 226.993 36.8252 225.841 36.8252C225.03 36.8252 224.412 36.6332 223.985 36.2492C223.516 35.9079 223.281 35.4172 223.281 34.7772C223.281 33.7532 223.622 32.6012 224.305 31.3212C224.988 29.9986 225.884 28.6546 226.993 27.2892C228.06 25.9239 229.19 24.6012 230.385 23.3212C231.58 22.0412 232.668 20.9319 233.649 19.9932Z" fill="#871C1C"/>
<path d="M30.312 2.96923C30.6107 3.05456 30.7173 3.18257 30.632 3.35323C30.5893 3.48123 30.2907 3.4599 29.736 3.28923C27.9013 2.77723 25.8747 2.67056 23.656 2.96923C21.4373 3.22523 19.304 3.82257 17.256 4.76123C15.2507 5.65723 13.608 6.80923 12.328 8.21723C11.048 9.58257 10.408 11.1186 10.408 12.8252C10.408 14.0626 10.792 15.1292 11.56 16.0252C12.328 16.9212 13.3307 17.6679 14.568 18.2652C15.848 18.8199 17.256 19.2466 18.792 19.5452C20.3707 19.8012 21.9493 19.9292 23.528 19.9292C25.7467 19.9292 27.9013 19.5879 29.992 18.9052C32.0827 18.1799 34.0027 17.2412 35.752 16.0892C37.5013 14.9372 39.0373 13.6999 40.36 12.3772C41.6827 11.0119 42.7067 9.68923 43.432 8.40923C44.1573 7.08656 44.52 5.93456 44.52 4.95323C44.52 3.5879 43.7947 2.90523 42.344 2.90523C40.8933 2.90523 39.4427 3.5239 37.992 4.76123C36.584 5.9559 35.1333 7.57723 33.64 9.62523C32.1467 11.6306 30.6107 13.8492 29.032 16.2812C27.4533 18.6706 25.8107 21.0812 24.104 23.5132C22.44 25.9026 20.6907 28.1212 18.856 30.1692C17.0213 32.1746 15.08 33.7959 13.032 35.0332C11.0267 36.2279 8.91467 36.8252 6.696 36.8252C4.648 36.8252 3.19733 36.4626 2.344 35.7372C1.448 35.0119 1 34.1799 1 33.2412C1 32.7719 1.23467 32.3452 1.704 31.9612C2.13067 31.5772 2.62133 31.3852 3.176 31.3852C4.072 31.3852 4.52 31.7906 4.52 32.6012C4.52 33.0279 4.328 33.3266 3.944 33.4972C3.56 33.6679 3.26133 33.7532 3.048 33.7532C2.792 33.7532 2.55733 33.7106 2.344 33.6252C2.088 33.5399 1.96 33.4972 1.96 33.4972C1.96 33.9666 2.28 34.5426 2.92 35.2252C3.51733 35.9079 4.66933 36.2492 6.376 36.2492C8.168 36.2492 9.78933 35.7586 11.24 34.7772C12.7333 33.7959 14.12 32.4732 15.4 30.8092C16.68 29.1452 17.9387 27.2892 19.176 25.2412C20.4133 23.1932 21.7147 21.0812 23.08 18.9052C24.4453 16.8146 25.896 14.7879 27.432 12.8252C28.968 10.8199 30.5467 9.0279 32.168 7.44923C33.832 5.87056 35.5173 4.6119 37.224 3.67323C38.9307 2.73457 40.616 2.26523 42.28 2.26523C44.584 2.26523 45.736 3.2039 45.736 5.08123C45.736 6.6599 45.0747 8.34523 43.752 10.1372C42.472 11.9292 40.744 13.6146 38.568 15.1932C36.4347 16.7719 34.0453 18.0732 31.4 19.0972C28.7547 20.0786 26.088 20.5692 23.4 20.5692C21.6507 20.5692 19.9013 20.4199 18.152 20.1212C16.4453 19.8226 14.888 19.3532 13.48 18.7132C12.072 18.0732 10.9413 17.2412 10.088 16.2172C9.23467 15.1932 8.808 13.9772 8.808 12.5692C8.808 10.9479 9.34133 9.49723 10.408 8.21723C11.4747 6.93723 12.84 5.87056 14.504 5.01723C16.2107 4.12123 18.024 3.43857 19.944 2.96923C21.9067 2.4999 23.8053 2.26523 25.64 2.26523C27.4747 2.26523 29.032 2.4999 30.312 2.96923Z" stroke="#871C1C" mask="url(#path-1-outside-1_1067_607)"/>
<path d="M46.488 8.60123C46.872 8.7719 47.4267 8.85723 48.152 8.85723C48.92 8.81456 49.5173 8.75056 49.944 8.66523C48.5787 10.5426 47.064 12.6119 45.4 14.8732C43.736 17.1346 42.0507 19.3959 40.344 21.6572C38.68 23.8759 37.1227 25.9666 35.672 27.9292C34.264 29.8492 33.1333 31.4706 32.28 32.7932C31.4267 34.1159 31 34.9479 31 35.2892C31 35.5452 31.1493 35.7372 31.448 35.8652C31.704 35.9932 32.0453 36.0572 32.472 36.0572C33.4107 36.0572 34.4347 35.7372 35.544 35.0972C36.696 34.4146 37.8267 33.5826 38.936 32.6012C40.088 31.5772 41.1333 30.5532 42.072 29.5292C43.0533 28.4626 43.8213 27.5452 44.376 26.7772L44.888 27.1612C44.2907 27.9292 43.5013 28.8466 42.52 29.9132C41.5387 30.9799 40.4507 32.0466 39.256 33.1132C38.0613 34.1799 36.824 35.0759 35.544 35.8012C34.3067 36.4839 33.112 36.8252 31.96 36.8252C31.1493 36.8252 30.5093 36.6546 30.04 36.3132C29.528 36.0146 29.272 35.4812 29.272 34.7132C29.272 34.0306 29.6773 32.9852 30.488 31.5772C31.2987 30.1266 32.344 28.4626 33.624 26.5852C34.9467 24.7079 36.376 22.7239 37.912 20.6332C39.448 18.4999 40.9627 16.4092 42.456 14.3612C43.992 12.2706 45.336 10.3506 46.488 8.60123ZM39.448 15.7692C39.0213 15.7692 38.808 15.6412 38.808 15.3852C38.808 15.1719 39.0213 15.0652 39.448 15.0652H51.608C51.736 15.0652 51.864 15.0866 51.992 15.1292C52.1627 15.1719 52.248 15.2572 52.248 15.3852C52.248 15.5559 52.1627 15.6626 51.992 15.7052C51.864 15.7479 51.736 15.7692 51.608 15.7692H39.448Z" stroke="#871C1C" mask="url(#path-1-outside-1_1067_607)"/>
<path d="M55.321 19.9292C57.4543 19.9292 58.521 20.9532 58.521 23.0012C58.521 24.5799 58.1583 26.2012 57.433 27.8652C56.7077 29.4866 55.7263 30.9799 54.489 32.3452C53.2517 33.6679 51.9077 34.7559 50.457 35.6092C49.0063 36.4199 47.5343 36.8252 46.041 36.8252C44.889 36.8252 43.929 36.5479 43.161 35.9932C42.3503 35.3959 41.945 34.4359 41.945 33.1132C41.945 31.8759 42.3077 30.5106 43.033 29.0172C43.7583 27.4812 44.7397 26.0306 45.977 24.6652C47.257 23.2999 48.6863 22.1692 50.265 21.2732C51.8863 20.3772 53.5717 19.9292 55.321 19.9292ZM56.025 20.8252C55.2997 20.8252 54.4463 21.1452 53.465 21.7852C52.4837 22.4252 51.481 23.2572 50.457 24.2812C49.433 25.3052 48.473 26.4146 47.577 27.6092C46.7237 28.7612 46.0197 29.8919 45.465 31.0012C44.953 32.1106 44.697 33.0492 44.697 33.8172C44.697 34.6706 44.9317 35.2679 45.401 35.6092C45.8703 35.9079 46.4037 36.0572 47.001 36.0572C47.9823 36.0572 49.0917 35.6519 50.329 34.8412C51.5663 33.9879 52.761 32.9212 53.913 31.6412C55.065 30.3612 56.0037 29.0172 56.729 27.6092C57.497 26.1586 57.881 24.8359 57.881 23.6412C57.881 22.5319 57.689 21.7852 57.305 21.4012C56.921 21.0172 56.4943 20.8252 56.025 20.8252ZM57.177 27.4172C57.3903 27.4172 57.4757 27.5026 57.433 27.6732C57.433 27.8012 57.3263 27.8652 57.113 27.8652C56.9423 27.8652 56.6863 28.0999 56.345 28.5692C56.0463 28.9959 55.769 29.4439 55.513 29.9132C55.257 30.3826 55.129 30.6386 55.129 30.6812C55.129 31.6626 55.4917 32.1532 56.217 32.1532C56.8997 32.1532 57.6677 31.8332 58.521 31.1932C59.417 30.5532 60.2703 29.8279 61.081 29.0172C61.9343 28.1639 62.617 27.4172 63.129 26.7772L63.641 27.2252C63.0863 27.8652 62.3823 28.6332 61.529 29.5292C60.6757 30.3826 59.7797 31.1506 58.841 31.8332C57.9023 32.4732 57.0277 32.7932 56.217 32.7932C55.5343 32.7932 55.065 32.6439 54.809 32.3452C54.553 32.0466 54.425 31.5132 54.425 30.7452C54.425 29.7212 54.7663 28.9106 55.449 28.3132C56.1743 27.7159 56.7503 27.4172 57.177 27.4172Z" stroke="#871C1C" mask="url(#path-1-outside-1_1067_607)"/>
<path d="M61.7815 36.8252C61.1842 36.8252 60.5228 36.6546 59.7975 36.3132C59.0295 36.0146 58.6455 35.5026 58.6455 34.7772C58.6455 33.8812 59.0508 32.7506 59.8615 31.3852C60.6722 30.0199 61.6748 28.6119 62.8695 27.1612C64.0215 25.7106 65.1522 24.3452 66.2615 23.0652C67.3708 21.7852 68.2028 20.7826 68.7575 20.0572C69.2268 20.0999 69.7815 20.1212 70.4215 20.1212C71.1042 20.1212 71.7015 20.0999 72.2135 20.0572C71.6162 20.7826 70.8268 21.6999 69.8455 22.8092C68.9068 23.9186 67.9042 25.1132 66.8375 26.3932C65.8135 27.6306 64.8108 28.8466 63.8295 30.0412C62.8908 31.2359 62.1228 32.3026 61.5255 33.2412C60.9282 34.1799 60.6295 34.8626 60.6295 35.2892C60.6295 35.5879 60.7575 35.8012 61.0135 35.9292C61.2695 36.0572 61.6962 36.1212 62.2935 36.1212C63.3175 36.1212 64.4482 35.7372 65.6855 34.9692C66.9655 34.1586 68.2028 33.1986 69.3975 32.0892C70.5922 30.9799 71.6588 29.9346 72.5975 28.9532C73.5362 27.9292 74.1975 27.1826 74.5815 26.7132L75.0935 27.1612C74.7095 27.5879 74.0482 28.3346 73.1095 29.4012C72.2135 30.4252 71.1255 31.5132 69.8455 32.6652C68.6082 33.8172 67.2855 34.7986 65.8775 35.6092C64.5122 36.4199 63.1468 36.8252 61.7815 36.8252ZM74.5815 15.1932C74.0695 15.1932 73.6855 15.0439 73.4295 14.7452C73.1735 14.4039 73.0455 14.0199 73.0455 13.5932C73.0455 13.1239 73.3015 12.6332 73.8135 12.1212C74.3255 11.6092 74.8588 11.3532 75.4135 11.3532C76.0108 11.3532 76.4375 11.5239 76.6935 11.8652C76.9495 12.1639 77.0775 12.4626 77.0775 12.7612C77.0775 13.4012 76.8215 13.9772 76.3095 14.4892C75.7975 14.9586 75.2215 15.1932 74.5815 15.1932Z" stroke="#871C1C" mask="url(#path-1-outside-1_1067_607)"/>
<path d="M86.851 24.7932C86.2537 24.7932 85.8057 24.6652 85.507 24.4092C85.251 24.1106 85.123 23.7692 85.123 23.3852C85.123 23.0012 85.2723 22.6386 85.571 22.2972C85.9123 21.9132 86.3603 21.7212 86.915 21.7212C87.2563 21.7212 87.555 21.7639 87.811 21.8492C88.067 21.9346 88.195 21.9772 88.195 21.9772C88.2377 21.5506 88.131 21.1879 87.875 20.8892C87.619 20.5479 87.1283 20.3772 86.403 20.3772C85.7203 20.3772 84.8883 20.6759 83.907 21.2732C82.9257 21.8706 81.9017 22.6599 80.835 23.6412C79.811 24.6226 78.8297 25.6892 77.891 26.8412C76.995 27.9932 76.2697 29.1666 75.715 30.3612C75.1603 31.5132 74.883 32.5586 74.883 33.4972C74.883 34.5639 75.2243 35.2679 75.907 35.6092C76.5897 35.9506 77.3363 36.1212 78.147 36.1212C79.683 36.1212 81.1977 35.7586 82.691 35.0332C84.1843 34.2652 85.5497 33.3479 86.787 32.2812C88.067 31.1719 89.155 30.1052 90.051 29.0812C90.947 28.0572 91.587 27.2679 91.971 26.7132L92.547 27.0972C92.2057 27.6092 91.5657 28.3986 90.627 29.4652C89.6883 30.5319 88.5363 31.6412 87.171 32.7932C85.8483 33.9026 84.3763 34.8626 82.755 35.6732C81.1337 36.4412 79.427 36.8252 77.635 36.8252C76.1843 36.8252 74.9683 36.5052 73.987 35.8652C72.963 35.1826 72.451 34.1372 72.451 32.7292C72.451 31.5346 72.7923 30.2119 73.475 28.7612C74.1577 27.2679 75.0963 25.8599 76.291 24.5372C77.5283 23.1719 78.979 22.0626 80.643 21.2092C82.3497 20.3132 84.227 19.8652 86.275 19.8652C87.0857 19.8652 87.7897 20.0359 88.387 20.3772C88.9843 20.7186 89.283 21.3159 89.283 22.1692C89.283 22.9372 89.0057 23.5772 88.451 24.0892C87.939 24.5586 87.4057 24.7932 86.851 24.7932Z" stroke="#871C1C" mask="url(#path-1-outside-1_1067_607)"/>
<path d="M106.964 37.5292C106.281 37.7426 105.961 37.6999 106.004 37.4012C106.004 37.1452 106.153 36.9959 106.452 36.9532C107.177 36.8252 107.881 36.5479 108.564 36.1212C109.247 35.6946 109.844 35.2039 110.356 34.6492C111.039 33.9239 111.977 32.6866 113.172 30.9372C114.367 29.1879 115.796 27.1399 117.46 24.7932C119.167 22.4039 121.065 19.9719 123.156 17.4972C125.161 15.1506 127.487 12.6332 130.132 9.94523C132.82 7.25723 135.657 4.4839 138.644 1.62523C138.985 1.32656 139.305 1.19856 139.604 1.24123C139.903 1.2839 140.095 1.39056 140.18 1.56123C140.265 1.68923 140.116 1.7959 139.732 1.88123C139.433 1.9239 139.135 2.09456 138.836 2.39323C138.58 2.64923 138.388 2.84123 138.26 2.96923C137.108 4.07856 135.785 5.6359 134.292 7.64123C132.799 9.6039 131.135 11.8226 129.3 14.2972C127.508 16.7719 125.567 19.3532 123.476 22.0412C121.385 24.6866 119.167 27.2679 116.82 29.7852C114.473 32.2599 111.999 34.4999 109.396 36.5052C109.097 36.7186 108.841 36.7399 108.628 36.5692C108.372 36.3986 108.564 36.2066 109.204 35.9932C110.655 35.5239 112.404 34.5212 114.452 32.9852C116.5 31.4066 118.74 29.5079 121.172 27.2892C123.604 25.0706 126.121 22.7026 128.724 20.1852C131.327 17.6679 133.929 15.1932 136.532 12.7612C139.177 10.2866 141.695 8.04657 144.084 6.04123C146.473 3.99323 148.671 2.39323 150.676 1.24123C151.188 0.942564 151.465 0.921231 151.508 1.17723C151.593 1.43323 151.508 1.62523 151.252 1.75323C151.039 1.83857 150.505 2.1799 149.652 2.77723C148.799 3.3319 148.137 3.8439 147.668 4.31323C147.327 4.65456 146.729 5.48656 145.876 6.80923C145.065 8.08923 144.084 9.68923 142.932 11.6092C141.78 13.5292 140.5 15.6199 139.092 17.8812C137.727 20.0999 136.297 22.3186 134.804 24.5372C133.353 26.7559 131.903 28.8039 130.452 30.6812C129.001 32.5586 127.636 34.0946 126.356 35.2892C126.143 35.4599 126.015 35.4812 125.972 35.3532C125.929 35.2252 125.951 35.0332 126.036 34.7772C126.121 34.5212 126.249 34.3292 126.42 34.2012C128.553 32.3666 130.751 30.2972 133.012 27.9932C135.316 25.6892 137.641 23.3426 139.988 20.9532C142.377 18.5212 144.745 16.1746 147.092 13.9132C149.481 11.6519 151.828 9.62523 154.132 7.83323C156.436 6.04123 158.676 4.6119 160.852 3.54523C163.028 2.47856 165.097 1.94523 167.06 1.94523C168.255 1.94523 169.385 2.20123 170.452 2.71323C171.561 3.22523 172.116 4.0999 172.116 5.33723C172.116 6.4039 171.775 7.2999 171.092 8.02523C170.409 8.75056 169.577 9.30523 168.596 9.68923C167.657 10.0306 166.719 10.2012 165.78 10.2012C164.457 10.2012 163.455 9.94523 162.772 9.43323C162.089 8.87857 161.663 8.3879 161.492 7.96123C161.321 7.57723 161.471 7.2999 161.94 7.12923C162.409 6.95856 162.644 7.08656 162.644 7.51323C162.644 8.1959 163.007 8.72923 163.732 9.11323C164.457 9.45457 165.225 9.62523 166.036 9.62523C166.761 9.62523 167.487 9.45457 168.212 9.11323C168.937 8.7719 169.535 8.28123 170.004 7.64123C170.516 6.95856 170.772 6.19056 170.772 5.33723C170.772 4.56923 170.388 3.95056 169.62 3.48123C168.895 2.96923 168.041 2.71323 167.06 2.71323C165.14 2.71323 163.092 3.24656 160.916 4.31323C158.74 5.3799 156.521 6.80923 154.26 8.60123C151.999 10.3506 149.716 12.3346 147.412 14.5532C145.151 16.7292 142.932 18.9692 140.756 21.2732C138.58 23.5346 136.489 25.7106 134.484 27.8012C132.521 29.8492 130.687 31.6412 128.98 33.1772C127.871 34.2012 126.868 35.0546 125.972 35.7372C125.119 36.4199 124.009 37.0172 122.644 37.5292C121.961 37.7852 121.599 37.7426 121.556 37.4012C121.556 37.1026 121.812 36.8892 122.324 36.7612C123.177 36.5479 123.988 36.0786 124.756 35.3532C125.524 34.5852 126.185 33.6252 126.74 32.4732C127.593 30.7239 128.724 28.7186 130.132 26.4572C131.583 24.1959 133.14 21.8706 134.804 19.4812C136.468 17.0919 138.132 14.8306 139.796 12.6972C141.503 10.5212 143.039 8.62256 144.404 7.00123C145.769 5.3799 146.857 4.2279 147.668 3.54523C147.839 3.37456 147.86 3.5239 147.732 3.99323C147.604 4.4199 147.135 4.88923 146.324 5.40123C144.063 6.89456 141.652 8.8359 139.092 11.2252C136.532 13.5719 133.887 16.1106 131.156 18.8412C128.468 21.5719 125.737 24.2172 122.964 26.7772C120.191 29.3372 117.46 31.5986 114.772 33.5612C112.084 35.4812 109.481 36.8039 106.964 37.5292ZM98.132 14.2972C98.2173 13.3586 98.6653 12.2919 99.476 11.0972C100.287 9.90257 101.353 8.7719 102.676 7.70523C103.999 6.5959 105.492 5.67856 107.156 4.95323C108.82 4.2279 110.548 3.86523 112.34 3.86523C114.132 3.86523 115.903 4.12123 117.652 4.63323C119.401 5.14523 121.044 5.67857 122.58 6.23323C124.159 6.74523 125.545 7.00123 126.74 7.00123C128.02 7.00123 129.236 6.76656 130.388 6.29723C131.54 5.8279 132.521 5.3159 133.332 4.76123C134.185 4.20657 134.719 3.82257 134.932 3.60923C135.273 3.31056 135.465 3.22523 135.508 3.35323C135.593 3.43857 135.529 3.60923 135.316 3.86523C135.188 4.0359 134.697 4.50523 133.844 5.27323C133.033 5.99857 131.881 6.70257 130.388 7.38523C128.895 8.0679 127.124 8.40923 125.076 8.40923C123.54 8.40923 122.196 8.28123 121.044 8.02523C119.935 7.76923 118.868 7.4919 117.844 7.19323C116.863 6.8519 115.839 6.55323 114.772 6.29723C113.748 6.04123 112.553 5.91323 111.188 5.91323C109.609 5.91323 108.095 6.2119 106.644 6.80923C105.151 7.40657 103.828 8.15323 102.676 9.04923C101.524 9.94523 100.628 10.8626 99.988 11.8012C99.3053 12.6972 98.9853 13.4652 99.028 14.1052C99.0707 14.5319 98.9213 14.8306 98.58 15.0012C98.2387 15.1719 98.0893 14.9372 98.132 14.2972Z" stroke="#871C1C" mask="url(#path-1-outside-1_1067_607)"/>
<path d="M155.219 36.8252C154.622 36.8252 153.96 36.6546 153.235 36.3132C152.467 36.0146 152.083 35.5026 152.083 34.7772C152.083 33.8812 152.488 32.7506 153.299 31.3852C154.11 30.0199 155.112 28.6119 156.307 27.1612C157.459 25.7106 158.59 24.3452 159.699 23.0652C160.808 21.7852 161.64 20.7826 162.195 20.0572C162.664 20.0999 163.219 20.1212 163.859 20.1212C164.542 20.1212 165.139 20.0999 165.651 20.0572C165.054 20.7826 164.264 21.6999 163.283 22.8092C162.344 23.9186 161.342 25.1132 160.275 26.3932C159.251 27.6306 158.248 28.8466 157.267 30.0412C156.328 31.2359 155.56 32.3026 154.963 33.2412C154.366 34.1799 154.067 34.8626 154.067 35.2892C154.067 35.5879 154.195 35.8012 154.451 35.9292C154.707 36.0572 155.134 36.1212 155.731 36.1212C156.755 36.1212 157.886 35.7372 159.123 34.9692C160.403 34.1586 161.64 33.1986 162.835 32.0892C164.03 30.9799 165.096 29.9346 166.035 28.9532C166.974 27.9292 167.635 27.1826 168.019 26.7132L168.531 27.1612C168.147 27.5879 167.486 28.3346 166.547 29.4012C165.651 30.4252 164.563 31.5132 163.283 32.6652C162.046 33.8172 160.723 34.7986 159.315 35.6092C157.95 36.4199 156.584 36.8252 155.219 36.8252ZM168.019 15.1932C167.507 15.1932 167.123 15.0439 166.867 14.7452C166.611 14.4039 166.483 14.0199 166.483 13.5932C166.483 13.1239 166.739 12.6332 167.251 12.1212C167.763 11.6092 168.296 11.3532 168.851 11.3532C169.448 11.3532 169.875 11.5239 170.131 11.8652C170.387 12.1639 170.515 12.4626 170.515 12.7612C170.515 13.4012 170.259 13.9772 169.747 14.4892C169.235 14.9586 168.659 15.1932 168.019 15.1932Z" stroke="#871C1C" mask="url(#path-1-outside-1_1067_607)"/>
<path d="M181.441 36.8252C179.179 36.8252 178.049 36.1639 178.049 34.8412C178.049 33.9879 178.326 33.0706 178.88 32.0892C179.478 31.1079 180.203 30.1266 181.057 29.1452C181.91 28.1212 182.763 27.1186 183.617 26.1372C184.512 25.1559 185.238 24.2599 185.792 23.4492C186.39 22.5959 186.689 21.8706 186.689 21.2732C186.689 21.0599 186.582 20.8892 186.368 20.7612C186.198 20.5906 185.942 20.5052 185.6 20.5052C185.089 20.5052 184.363 20.7612 183.424 21.2732C182.529 21.7852 181.377 22.6599 179.969 23.8972C178.603 25.0919 176.982 26.7132 175.105 28.7612C173.227 30.7666 171.073 33.2839 168.641 36.3132C168.257 36.2279 167.681 36.1852 166.913 36.1852C166.145 36.1852 165.483 36.2706 164.928 36.4412C166.166 34.6492 167.382 32.8999 168.577 31.1932C169.771 29.4866 170.859 27.9292 171.84 26.5212C172.865 25.1132 173.675 23.9612 174.273 23.0652C174.87 22.1266 175.169 21.5506 175.169 21.3372C175.169 20.9532 174.977 20.7612 174.592 20.7612C174.166 20.7612 173.632 21.1026 172.992 21.7852C172.352 22.4252 171.648 23.2572 170.88 24.2812C170.112 25.2626 169.323 26.2652 168.512 27.2892L167.936 26.9052C168.79 25.9239 169.622 24.8999 170.432 23.8332C171.243 22.7666 172.075 21.8492 172.928 21.0812C173.782 20.3132 174.678 19.9292 175.617 19.9292C176.086 19.9292 176.512 20.0572 176.896 20.3132C177.323 20.5266 177.536 20.8892 177.536 21.4012C177.536 21.8706 177.344 22.4466 176.96 23.1292C176.619 23.7692 176.15 24.5159 175.553 25.3692C174.955 26.1799 174.273 27.0972 173.505 28.1212C172.779 29.1026 172.011 30.1692 171.201 31.3212L171.264 31.7052C173.526 29.2306 175.424 27.2252 176.96 25.6892C178.539 24.1532 179.84 22.9799 180.865 22.1692C181.931 21.3159 182.848 20.7399 183.617 20.4412C184.427 20.0999 185.195 19.9292 185.921 19.9292C186.902 19.9292 187.606 20.1426 188.033 20.5692C188.459 20.9532 188.673 21.4866 188.673 22.1692C188.673 23.1932 188.374 24.2812 187.777 25.4332C187.179 26.5426 186.432 27.6519 185.536 28.7612C184.683 29.8279 183.809 30.8306 182.913 31.7692C182.059 32.6652 181.334 33.4332 180.736 34.0732C180.139 34.7132 179.84 35.1399 179.84 35.3532C179.84 35.6092 179.904 35.8012 180.033 35.9292C180.203 36.0572 180.609 36.1212 181.249 36.1212C182.827 36.1212 184.32 35.6306 185.729 34.6492C187.179 33.6679 188.566 32.4732 189.889 31.0652C191.211 29.6146 192.448 28.1852 193.6 26.7772L194.113 27.2252C192.961 28.5906 191.702 30.0199 190.337 31.5132C188.971 33.0066 187.542 34.2652 186.049 35.2892C184.555 36.3132 183.019 36.8252 181.441 36.8252Z" stroke="#871C1C" mask="url(#path-1-outside-1_1067_607)"/>
<path d="M196.507 36.8252C194.502 36.8252 193.179 36.3772 192.539 35.4812C191.899 34.5426 191.579 33.5612 191.579 32.5372C191.579 30.7879 192.027 29.1666 192.923 27.6732C193.819 26.1372 194.971 24.7719 196.379 23.5772C197.787 22.3826 199.238 21.4652 200.731 20.8252C202.267 20.1426 203.632 19.8012 204.827 19.8012C205.68 19.8012 206.363 19.9292 206.875 20.1852C207.387 20.3986 207.643 20.8679 207.643 21.5932C207.643 22.2759 207.238 23.0012 206.427 23.7692C205.616 24.5372 204.592 25.2839 203.355 26.0092C202.118 26.6919 200.816 27.3319 199.451 27.9292C198.128 28.4839 196.912 28.9319 195.803 29.2732C194.694 29.6146 193.883 29.7852 193.371 29.7852C193.371 29.7852 193.371 29.6786 193.371 29.4652C193.371 29.2092 193.371 29.0812 193.371 29.0812C193.755 29.1239 194.416 28.9959 195.355 28.6972C196.336 28.3986 197.424 28.0146 198.619 27.5452C199.814 27.0332 200.966 26.4572 202.075 25.8172C203.227 25.1772 204.166 24.4946 204.891 23.7692C205.659 23.0439 206.043 22.3399 206.043 21.6572C206.043 21.3159 205.936 21.0172 205.723 20.7612C205.552 20.5052 205.232 20.3772 204.763 20.3772C204.08 20.3772 203.248 20.7186 202.267 21.4012C201.328 22.0412 200.368 22.8946 199.387 23.9612C198.406 25.0279 197.488 26.1586 196.635 27.3532C195.782 28.5479 195.078 29.6999 194.523 30.8092C194.011 31.8759 193.755 32.7719 193.755 33.4972C193.755 34.3506 194.011 34.9906 194.523 35.4172C195.035 35.8439 195.782 36.0572 196.763 36.0572C198.47 36.0572 200.07 35.6519 201.563 34.8412C203.099 33.9879 204.486 33.0066 205.723 31.8972C206.96 30.7452 208.006 29.6786 208.859 28.6972C209.712 27.6732 210.288 27.0119 210.587 26.7132C210.587 26.7132 210.651 26.7772 210.779 26.9052C210.95 27.0332 211.035 27.0972 211.035 27.0972C210.736 27.4386 210.16 28.1212 209.307 29.1452C208.454 30.1692 207.387 31.2786 206.107 32.4732C204.827 33.6679 203.376 34.6919 201.755 35.5452C200.134 36.3986 198.384 36.8252 196.507 36.8252Z" stroke="#871C1C" mask="url(#path-1-outside-1_1067_607)"/>
<path d="M210.436 27.8652C210.266 28.0359 210.138 28.0572 210.053 27.9292C209.967 27.7586 209.946 27.5879 209.988 27.4172C210.714 26.6919 211.418 25.8386 212.1 24.8572C212.826 23.8759 213.423 22.9586 213.893 22.1052C214.404 21.2519 214.703 20.6759 214.788 20.3772C214.874 20.3772 215.002 20.3132 215.173 20.1852C215.386 20.0572 215.578 20.0146 215.749 20.0572C215.706 20.3559 215.642 20.6332 215.557 20.8892C215.514 21.1452 215.663 21.3799 216.005 21.5932C216.346 21.8066 217.05 22.0199 218.117 22.2332C219.183 22.4466 220.805 22.6812 222.98 22.9372C223.194 22.9799 223.343 23.0652 223.428 23.1932C223.557 23.2786 223.492 23.4279 223.236 23.6412C222.426 24.2812 221.53 25.0919 220.549 26.0732C219.567 27.0546 218.607 28.0999 217.669 29.2092C216.773 30.2759 216.026 31.3212 215.428 32.3452C214.874 33.3692 214.596 34.2226 214.596 34.9052C214.596 35.6732 214.938 36.0572 215.62 36.0572C216.474 36.0572 217.434 35.7159 218.501 35.0332C219.61 34.3506 220.719 33.5186 221.829 32.5372C222.938 31.5132 223.962 30.4892 224.9 29.4652C225.882 28.3986 226.693 27.5239 227.333 26.8412L227.844 27.2252C227.247 27.8226 226.479 28.6546 225.54 29.7212C224.602 30.7879 223.535 31.8759 222.34 32.9852C221.189 34.0519 219.951 34.9692 218.628 35.7372C217.306 36.4626 215.941 36.8252 214.533 36.8252C213.722 36.8252 212.997 36.6332 212.357 36.2492C211.717 35.9079 211.396 35.2679 211.396 34.3292C211.396 33.4332 211.78 32.4946 212.548 31.5132C213.316 30.5319 214.277 29.5506 215.428 28.5692C216.58 27.5452 217.775 26.5852 219.012 25.6892C220.292 24.7506 221.423 23.8972 222.404 23.1292L222.852 23.7052C222.426 23.5346 221.679 23.3852 220.613 23.2572C219.546 23.0866 218.436 22.8732 217.285 22.6172C216.133 22.3186 215.13 21.9346 214.277 21.4652C213.466 20.9959 213.061 20.3559 213.061 19.5452C213.061 19.1186 213.231 18.6066 213.572 18.0092C213.956 17.3692 214.469 17.0492 215.109 17.0492C215.706 17.0492 216.111 17.1772 216.324 17.4332C216.538 17.6466 216.645 17.9452 216.645 18.3292C216.645 18.5852 216.431 19.1186 216.005 19.9292C215.578 20.6972 215.044 21.6146 214.404 22.6812C213.764 23.7052 213.082 24.6866 212.357 25.6252C211.674 26.5639 211.034 27.3106 210.436 27.8652Z" stroke="#871C1C" mask="url(#path-1-outside-1_1067_607)"/>
<path d="M233.649 19.9932C234.246 20.1639 234.865 20.2492 235.505 20.2492C236.145 20.2066 236.806 20.1639 237.489 20.1212C236.337 21.2306 235.036 22.5532 233.585 24.0892C232.177 25.5826 230.812 27.0972 229.489 28.6332C228.209 30.1266 227.142 31.4706 226.289 32.6652C225.436 33.8172 225.009 34.6066 225.009 35.0332C225.009 35.3319 225.116 35.6092 225.329 35.8652C225.542 36.0786 225.905 36.1852 226.417 36.1852C227.91 36.1852 229.446 35.7372 231.025 34.8412C232.646 33.9452 234.204 32.8146 235.697 31.4492C237.233 30.0412 238.662 28.5906 239.985 27.0972C241.308 25.5612 242.46 24.1746 243.441 22.9372C244.465 21.6572 245.212 20.7186 245.681 20.1212C246.022 20.2066 246.577 20.2492 247.345 20.2492C248.156 20.2492 248.71 20.2279 249.009 20.1852C244.614 25.4759 240.753 30.3399 237.425 34.7772C234.14 39.1719 231.174 42.9479 228.529 46.1052C225.884 49.3052 223.366 51.7799 220.977 53.5292C218.545 55.2786 216.006 56.1532 213.361 56.1532C211.74 56.1532 210.929 55.5132 210.929 54.2332C210.929 53.2946 211.526 52.3132 212.721 51.2892C213.873 50.2652 215.43 49.1986 217.393 48.0892C219.356 47.0226 221.532 45.9559 223.921 44.8892C226.31 43.8226 228.742 42.7986 231.217 41.8172C234.46 40.5372 237.126 39.1292 239.217 37.5932C241.35 36.0999 243.206 34.4572 244.785 32.6652C246.406 30.8732 248.049 28.9106 249.713 26.7772L250.225 27.0972C248.518 29.2732 246.833 31.2786 245.169 33.1132C243.505 34.9052 241.606 36.5692 239.473 38.1052C237.34 39.6412 234.652 41.0706 231.409 42.3932C228.977 43.3746 226.609 44.3772 224.305 45.4012C221.958 46.4679 219.846 47.4919 217.969 48.4732C216.049 49.4972 214.534 50.4999 213.425 51.4812C212.273 52.4626 211.697 53.3799 211.697 54.2332C211.697 54.7452 211.868 55.0652 212.209 55.1932C212.55 55.3639 212.998 55.4492 213.553 55.4492C214.876 55.4492 216.305 54.9372 217.841 53.9132C219.334 52.8892 220.913 51.5026 222.577 49.7532C224.241 48.0039 225.926 46.0199 227.633 43.8012C229.382 41.6252 231.153 39.3639 232.945 37.0172C234.737 34.6706 236.55 32.3879 238.385 30.1692L238.129 30.0412C238.044 30.1692 237.745 30.4892 237.233 31.0012C236.721 31.5132 236.06 32.0892 235.249 32.7292C234.438 33.3692 233.521 34.0092 232.497 34.6492C231.473 35.2892 230.385 35.8226 229.233 36.2492C228.124 36.6332 226.993 36.8252 225.841 36.8252C225.03 36.8252 224.412 36.6332 223.985 36.2492C223.516 35.9079 223.281 35.4172 223.281 34.7772C223.281 33.7532 223.622 32.6012 224.305 31.3212C224.988 29.9986 225.884 28.6546 226.993 27.2892C228.06 25.9239 229.19 24.6012 230.385 23.3212C231.58 22.0412 232.668 20.9319 233.649 19.9932Z" stroke="#871C1C" mask="url(#path-1-outside-1_1067_607)"/>
</svg>
