<svg width="58" height="63" viewBox="0 0 58 63" fill="none" xmlns="http://www.w3.org/2000/svg">
<path d="M18.28 43.496L18.5102 43.5934C19.6872 40.8115 20.7037 37.976 21.5597 35.087L21.5604 35.0847C22.4185 32.0813 22.85 29.3378 22.85 26.856C22.85 25.2176 22.4679 23.4792 21.7121 21.6432C20.9519 19.6893 19.8109 18.0049 18.2901 16.5928C16.7458 15.1588 14.8163 14.446 12.52 14.446C10.2134 14.446 8.17975 15.2723 6.42901 16.9136C4.69417 18.54 3.28905 20.5962 2.21073 23.0763L2.21057 23.0763L2.20719 23.0849C1.23569 25.5676 0.75 28.1586 0.75 30.856C0.75 35.8045 1.93382 40.4326 4.30095 44.7365L4.30091 44.7365L4.30327 44.7406C6.17404 47.9941 8.50746 50.757 11.3029 53.0275C10.5465 54.3836 9.8143 55.6431 9.10643 56.806L9.10477 56.8088C7.7171 59.1572 6.81412 60.6441 6.39199 61.2773L6.09187 61.7275L6.62921 61.6643C8.43352 61.452 10.1837 61.346 11.88 61.346C13.6845 61.346 15.2166 61.4522 16.4789 61.6626L16.6789 61.6959L16.7528 61.5071C17.2353 60.274 17.854 58.8632 18.6091 57.2743C21.5372 58.3887 24.628 58.946 27.88 58.946C31.8658 58.946 35.4298 58.03 38.5649 56.1926C41.7946 54.3621 44.3316 52.0431 46.1687 49.2337C48.1088 46.3232 49.09 43.4494 49.09 40.616C49.09 39.0531 48.8624 37.8399 48.3757 37.0096C47.8768 36.1586 47.1141 35.726 46.12 35.726C45.4182 35.726 44.8198 35.9626 44.3432 36.4392C43.9795 36.803 43.79 37.2387 43.79 37.736C43.79 38.6406 44.076 39.3291 44.7114 39.7104C45.2249 40.0185 45.785 40.1883 46.3878 40.2204C46.733 42.4341 46.1582 44.8124 44.6267 47.3655C43.0497 49.8881 40.7857 52.1021 37.826 54.005C34.9899 55.7904 31.7306 56.686 28.04 56.686C24.9476 56.686 22.1286 56.2174 19.5804 55.2828C20.0814 54.2793 20.6283 53.216 21.2211 52.0927L21.2224 52.0902C23.2455 48.1504 25.6421 43.9429 28.4126 39.4676L28.4139 39.4654C31.1843 34.8835 34.168 30.3014 37.365 25.719C40.5617 21.1372 43.8113 16.8222 47.1137 12.774C50.4127 8.7301 53.655 5.38228 56.84 2.72806L56.8488 2.7208L56.8568 2.71278C57.1342 2.43534 57.3359 2.16547 57.4341 1.90378C57.5345 1.63592 57.5282 1.36706 57.3765 1.13037C57.3016 0.986914 57.1905 0.871368 57.0385 0.806213C56.8853 0.740556 56.7174 0.737572 56.551 0.770855C56.2271 0.835634 55.8432 1.0511 55.41 1.376L55.4099 1.37587L55.4031 1.3814C52.0855 4.05684 48.5039 7.42499 44.6585 11.484L44.6561 11.4866C40.919 15.5441 37.2355 19.8148 33.6057 24.2987L33.6052 24.2993C30.0838 28.6744 26.7754 32.9432 23.6803 37.1056C21.6154 39.8113 19.7638 42.3039 18.1257 44.5833C18.2541 44.2563 18.3833 43.9237 18.5133 43.5857L18.28 43.496ZM18.28 43.496C18.024 44.1615 17.7711 44.8056 17.5213 45.4281L2.44 23.176C3.50667 20.7227 4.89333 18.696 6.6 17.096C8.30667 15.496 10.28 14.696 12.52 14.696C14.76 14.696 16.6267 15.3893 18.12 16.776C19.6133 18.1627 20.7333 19.816 21.48 21.736C22.2267 23.5493 22.6 25.256 22.6 26.856C22.6 29.3093 22.1733 32.0293 21.32 35.016C20.4667 37.896 19.4533 40.7227 18.28 43.496ZM13.8978 48.1813C13.4259 49.0956 12.9623 49.9771 12.5069 50.8258C10.5246 48.9442 8.89723 46.7311 7.62421 44.1854C5.72232 40.2755 4.77 35.9936 4.77 31.336C4.77 27.0013 5.7739 23.5963 7.75409 21.0936C9.87993 18.5433 11.7342 17.346 13.32 17.346C14.5096 17.346 15.531 17.6043 16.3932 18.1115C17.2554 18.6186 17.9725 19.3829 18.5409 20.4165L18.5408 20.4166L18.5456 20.4246C19.8062 22.5256 20.43 24.615 20.43 26.696C20.43 30.0777 19.796 33.6772 18.5232 37.4959C17.2474 41.2167 15.7061 44.7776 13.8992 48.1787L13.8978 48.1813Z" fill="#871C1C" stroke="#871C1C" stroke-width="0.5"/>
</svg>
